<svg width="160" height="25" viewBox="0 0 160 25" fill="none" xmlns="http://www.w3.org/2000/svg">
<path d="M39.477 20.5641C38.8832 20.5641 38.3216 20.4851 37.7921 20.3269C37.2626 20.1688 36.7892 19.9395 36.372 19.639C35.9548 19.3227 35.6178 18.9353 35.361 18.4767C35.1203 18.0022 35 17.4487 35 16.8162C35 16.0096 35.1605 15.3534 35.4814 14.8473C35.8023 14.3254 36.2356 13.9301 36.7812 13.6612C37.3428 13.3924 37.9766 13.2105 38.6827 13.1157C39.3887 13.005 40.1269 12.9496 40.8971 12.9496H43.3763C43.3763 12.3961 43.288 11.9217 43.1115 11.5263C42.935 11.1152 42.6542 10.791 42.2691 10.5538C41.9 10.3166 41.4186 10.1979 40.8249 10.1979C40.4398 10.1979 40.0787 10.2454 39.7417 10.3403C39.4208 10.4193 39.14 10.5538 38.8993 10.7435C38.6746 10.9175 38.5142 11.1468 38.4179 11.4314H35.4092C35.5215 10.7831 35.7462 10.2296 36.0831 9.77096C36.4362 9.29654 36.8614 8.90909 37.3588 8.60862C37.8723 8.30815 38.4339 8.08675 39.0437 7.94443C39.6535 7.78628 40.2713 7.70721 40.8971 7.70721C42.7424 7.70721 44.0823 8.22908 44.9167 9.27282C45.7672 10.3166 46.1924 11.7794 46.1924 13.6612V20.3981H43.5929L43.5207 18.785C43.1516 19.3227 42.7103 19.7181 42.1968 19.9711C41.6834 20.2241 41.1859 20.3823 40.7045 20.4455C40.2231 20.5246 39.8139 20.5641 39.477 20.5641ZM40.0546 18.2157C40.6965 18.2157 41.2662 18.0971 41.7636 17.8599C42.261 17.6227 42.6542 17.2906 42.943 16.8636C43.2479 16.4366 43.4003 15.9464 43.4003 15.3929V14.9896H41.0896C40.7045 14.9896 40.3194 15.0054 39.9343 15.0371C39.5652 15.0529 39.2282 15.1161 38.9234 15.2268C38.6185 15.3217 38.3698 15.472 38.1772 15.6776C38.0007 15.8831 37.9124 16.1757 37.9124 16.5552C37.9124 16.9348 38.0087 17.2432 38.2013 17.4804C38.4099 17.7176 38.6746 17.8994 38.9956 18.026C39.3325 18.1525 39.6856 18.2157 40.0546 18.2157Z" fill="#18181B"/>
<path d="M47.0704 20.3981V3.62716H50.0069V20.3981H47.0704Z" fill="#18181B"/>
<path d="M56.6076 20.5641C55.2918 20.5641 54.1686 20.2953 53.2379 19.7576C52.3232 19.2199 51.6252 18.4767 51.1438 17.5278C50.6785 16.5631 50.4458 15.4482 50.4458 14.1831C50.4458 12.918 50.6865 11.8031 51.1679 10.8384C51.6653 9.85794 52.3714 9.09095 53.286 8.53746C54.2167 7.98396 55.332 7.70721 56.6317 7.70721C57.5945 7.70721 58.4369 7.88117 59.159 8.22908C59.8811 8.56118 60.4829 9.01979 60.9643 9.60491C61.4617 10.19 61.8308 10.8542 62.0715 11.5975C62.3122 12.3408 62.4245 13.1236 62.4084 13.9459C62.3924 14.1357 62.3764 14.3254 62.3603 14.5152C62.3443 14.6892 62.3202 14.8789 62.2881 15.0845H53.3823C53.4304 15.638 53.5749 16.1441 53.8156 16.6027C54.0723 17.0613 54.4253 17.425 54.8746 17.6939C55.34 17.9627 55.9176 18.0971 56.6076 18.0971C57.0088 18.0971 57.3939 18.0497 57.763 17.9548C58.1321 17.8441 58.453 17.6859 58.7258 17.4804C59.0146 17.2748 59.2072 17.0138 59.3035 16.6976H62.24C62.0314 17.599 61.6462 18.3343 61.0846 18.9036C60.523 19.4729 59.849 19.892 59.0628 20.1609C58.2925 20.4297 57.4742 20.5641 56.6076 20.5641ZM53.4304 12.9259H59.5442C59.5442 12.404 59.4238 11.9296 59.1831 11.5026C58.9424 11.0756 58.5974 10.7435 58.1481 10.5063C57.7149 10.2533 57.1853 10.1268 56.5595 10.1268C55.8856 10.1268 55.3239 10.2612 54.8746 10.53C54.4253 10.7989 54.0803 11.1468 53.8396 11.5738C53.5989 12.0008 53.4625 12.4515 53.4304 12.9259Z" fill="#18181B"/>
<path d="M62.8229 20.3981V7.89699H65.4946L65.6631 9.53375C65.9841 9.05932 66.3451 8.6956 66.7463 8.44257C67.1635 8.17373 67.6048 7.98396 68.0701 7.87326C68.5515 7.76256 69.0329 7.70721 69.5143 7.70721C69.6908 7.70721 69.8513 7.70721 69.9957 7.70721C70.1561 7.70721 70.2845 7.71512 70.3808 7.73094C70.3724 8.80553 70.3594 10.4826 70.3594 10.4826L69.6106 10.4826C68.7761 10.4826 68.0701 10.6407 67.4924 10.957C66.9148 11.2733 66.4815 11.724 66.1927 12.3091C65.9038 12.8943 65.7594 13.6138 65.7594 14.4678V20.3981H62.8229Z" fill="#18181B"/>
<path d="M76.4253 20.3981C75.3983 20.3981 74.5479 20.2637 73.8739 19.9948C73.216 19.726 72.7186 19.2911 72.3816 18.6901C72.0607 18.0892 71.9002 17.2827 71.9002 16.2706V10.4826L70.3594 10.4826C70.3594 10.4826 70.3724 8.80553 70.3808 7.73094C70.9742 7.79578 71.9002 7.8134 71.9002 7.8134V4.40996H74.8367V7.89698H77.7973V10.4589H74.8367V15.891C74.8367 16.5236 74.949 17.0059 75.1737 17.338C75.3983 17.6701 75.9038 17.8362 76.6901 17.8362H77.701V20.3981H76.4253Z" fill="#18181B"/>
<path d="M95.5716 20.3506L100.049 13.9696L95.8123 7.84955H99.2302L101.974 12.0482L104.646 7.84955H107.992L103.755 14.0408L108.305 20.3506H104.863L101.854 16.0334L98.8451 20.3506H95.5716Z" fill="#18181B"/>
<path d="M78.9509 25V16.4136L79.0472 7.89698L81.8406 7.89699L81.985 9.58119C82.4825 8.93281 83.0762 8.45839 83.7662 8.15792C84.4562 7.85745 85.2184 7.70721 86.0528 7.70721C87.3044 7.70721 88.3394 7.99187 89.1578 8.56118C89.9762 9.13049 90.5859 9.89747 90.9871 10.8621C91.3883 11.8268 91.5888 12.918 91.5888 14.1357C91.5888 15.3534 91.3802 16.4524 90.963 17.4329C90.5458 18.3976 89.912 19.1646 89.0615 19.7339C88.2271 20.2874 87.1761 20.5641 85.9084 20.5641C85.3147 20.5641 84.7691 20.5009 84.2716 20.3744C83.7903 20.2478 83.357 20.066 82.9719 19.8288C82.6028 19.5916 82.2899 19.3227 82.0332 19.0222V25H78.9509ZM85.4511 17.9548C86.2694 17.9548 86.9113 17.7808 87.3766 17.4329C87.842 17.0692 88.179 16.6027 88.3876 16.0334C88.5962 15.4482 88.7005 14.8315 88.7005 14.1831C88.7005 13.5031 88.5882 12.8705 88.3635 12.2854C88.1549 11.7003 87.8099 11.2259 87.3285 10.8621C86.8471 10.4984 86.2052 10.3166 85.4029 10.3166C84.6648 10.3166 84.039 10.4984 83.5255 10.8621C83.028 11.21 82.6509 11.6766 82.3942 12.2617C82.1375 12.8468 82.0091 13.4794 82.0091 14.1594C82.0091 14.8552 82.1294 15.4957 82.3701 16.0808C82.6108 16.6501 82.9879 17.1087 83.5014 17.4566C84.0149 17.7887 84.6648 17.9548 85.4511 17.9548Z" fill="#18181B"/>
<path d="M92.2591 20.3743V7.87325H95.1956V20.3743H92.2591ZM93.7274 6.42625C93.1657 6.42625 92.7164 6.2602 92.3795 5.92811C92.0425 5.59601 91.874 5.16112 91.874 4.62344C91.874 4.10157 92.0505 3.67459 92.4035 3.34249C92.7566 2.99458 93.1978 2.82062 93.7274 2.82062C94.2409 2.82062 94.6821 2.98667 95.0512 3.31877C95.4203 3.65087 95.6048 4.08576 95.6048 4.62344C95.6048 5.16112 95.4283 5.59601 95.0753 5.92811C94.7222 6.2602 94.273 6.42625 93.7274 6.42625Z" fill="#18181B"/>
<path d="M110.906 2V4.82644H113.953V7.8353H117V2H110.906Z" fill="#18181B"/>
<path d="M107.951 4.85018H110.905V7.85897H107.951V4.85018Z" fill="#18181B"/>
<path d="M110.906 7.8353L113.953 7.84221V10.7529H110.906V7.8353Z" fill="#18181B"/>
<path d="M111.536 21V15.336H113.752C114.349 15.336 114.864 15.4427 115.296 15.656C115.733 15.8693 116.069 16.1867 116.304 16.608C116.544 17.0293 116.664 17.5573 116.664 18.192C116.664 18.8107 116.549 19.328 116.32 19.744C116.091 20.16 115.76 20.4747 115.328 20.688C114.896 20.896 114.376 21 113.768 21H111.536ZM112.984 19.664H113.784C114.141 19.664 114.421 19.6027 114.624 19.48C114.832 19.352 114.979 19.176 115.064 18.952C115.155 18.728 115.2 18.4693 115.2 18.176C115.2 17.8933 115.157 17.64 115.072 17.416C114.987 17.1867 114.837 17.008 114.624 16.88C114.411 16.7467 114.112 16.68 113.728 16.68H112.984V19.664ZM119.632 21.064C119.056 21.064 118.552 20.944 118.12 20.704C117.688 20.464 117.352 20.128 117.112 19.696C116.877 19.2587 116.76 18.752 116.76 18.176C116.76 17.584 116.882 17.072 117.128 16.64C117.373 16.2027 117.714 15.864 118.152 15.624C118.589 15.384 119.096 15.264 119.672 15.264C120.242 15.264 120.744 15.3813 121.176 15.616C121.608 15.8507 121.946 16.184 122.192 16.616C122.437 17.0427 122.56 17.5493 122.56 18.136C122.56 18.712 122.437 19.2213 122.192 19.664C121.952 20.1013 121.61 20.4453 121.168 20.696C120.73 20.9413 120.218 21.064 119.632 21.064ZM119.664 19.696C120.005 19.696 120.28 19.6187 120.488 19.464C120.696 19.304 120.845 19.1067 120.936 18.872C121.032 18.6373 121.08 18.4053 121.08 18.176C121.08 18.0053 121.053 17.832 121 17.656C120.952 17.4747 120.872 17.3067 120.76 17.152C120.653 16.9973 120.509 16.872 120.328 16.776C120.146 16.68 119.922 16.632 119.656 16.632C119.32 16.632 119.048 16.7093 118.84 16.864C118.632 17.0133 118.48 17.2053 118.384 17.44C118.288 17.6747 118.24 17.9173 118.24 18.168C118.24 18.4187 118.288 18.6613 118.384 18.896C118.485 19.1307 118.64 19.3227 118.848 19.472C119.061 19.6213 119.333 19.696 119.664 19.696ZM125.463 21.064C124.876 21.064 124.372 20.9493 123.951 20.72C123.529 20.4853 123.207 20.1547 122.983 19.728C122.759 19.296 122.647 18.7867 122.647 18.2C122.647 17.5973 122.761 17.0773 122.991 16.64C123.225 16.1973 123.551 15.8587 123.967 15.624C124.388 15.384 124.879 15.264 125.439 15.264C125.881 15.264 126.284 15.344 126.647 15.504C127.015 15.664 127.313 15.904 127.543 16.224C127.772 16.544 127.908 16.9493 127.951 17.44H126.583C126.519 17.184 126.399 16.9867 126.223 16.848C126.047 16.704 125.801 16.632 125.487 16.632C125.151 16.632 124.884 16.7067 124.687 16.856C124.489 17.0053 124.348 17.1947 124.263 17.424C124.183 17.6533 124.143 17.8907 124.143 18.136C124.143 18.3813 124.185 18.624 124.271 18.864C124.361 19.104 124.505 19.304 124.703 19.464C124.905 19.6187 125.175 19.696 125.511 19.696C125.713 19.696 125.889 19.6667 126.039 19.608C126.188 19.544 126.311 19.4533 126.407 19.336C126.508 19.2133 126.577 19.0667 126.615 18.896H128.015C127.983 19.376 127.844 19.7787 127.599 20.104C127.353 20.424 127.041 20.664 126.663 20.824C126.289 20.984 125.889 21.064 125.463 21.064ZM130.562 21.064C130.146 21.064 129.759 20.9947 129.402 20.856C129.05 20.7173 128.759 20.5013 128.53 20.208C128.306 19.9147 128.17 19.5413 128.122 19.088H129.578C129.615 19.2373 129.684 19.36 129.786 19.456C129.887 19.5467 130.012 19.6133 130.162 19.656C130.316 19.6987 130.482 19.72 130.658 19.72C130.764 19.72 130.874 19.7093 130.986 19.688C131.098 19.6667 131.191 19.6267 131.266 19.568C131.346 19.5093 131.386 19.424 131.386 19.312C131.386 19.232 131.362 19.168 131.314 19.12C131.271 19.0667 131.207 19.024 131.122 18.992C131.042 18.9547 130.94 18.9227 130.818 18.896C130.77 18.8853 130.719 18.8747 130.666 18.864C130.618 18.8533 130.57 18.8427 130.522 18.832C130.474 18.8213 130.423 18.8107 130.37 18.8C130.098 18.7413 129.836 18.6747 129.586 18.6C129.335 18.52 129.114 18.416 128.922 18.288C128.73 18.16 128.578 17.9893 128.466 17.776C128.354 17.5627 128.298 17.2933 128.298 16.968C128.298 16.6693 128.351 16.4187 128.458 16.216C128.564 16.008 128.706 15.8427 128.882 15.72C129.058 15.592 129.25 15.496 129.458 15.432C129.666 15.368 129.871 15.3253 130.074 15.304C130.276 15.2773 130.458 15.264 130.618 15.264C131.012 15.264 131.359 15.3387 131.658 15.488C131.956 15.632 132.196 15.8453 132.378 16.128C132.564 16.4107 132.676 16.752 132.714 17.152H131.314C131.298 17.0347 131.25 16.936 131.17 16.856C131.09 16.7707 130.986 16.7067 130.858 16.664C130.735 16.616 130.591 16.592 130.426 16.592C130.33 16.592 130.239 16.6 130.154 16.616C130.068 16.632 129.994 16.656 129.93 16.688C129.871 16.72 129.823 16.76 129.786 16.808C129.748 16.856 129.73 16.912 129.73 16.976C129.73 17.0613 129.762 17.1333 129.826 17.192C129.895 17.2507 129.994 17.3013 130.122 17.344C130.255 17.3867 130.418 17.432 130.61 17.48C130.7 17.5013 130.788 17.5227 130.874 17.544C130.959 17.56 131.044 17.5787 131.13 17.6C131.364 17.6533 131.583 17.7147 131.786 17.784C131.994 17.8533 132.175 17.944 132.33 18.056C132.49 18.168 132.615 18.32 132.706 18.512C132.796 18.6987 132.842 18.9387 132.842 19.232C132.842 19.568 132.778 19.8533 132.65 20.088C132.522 20.3173 132.348 20.504 132.13 20.648C131.911 20.792 131.666 20.8987 131.394 20.968C131.122 21.032 130.844 21.064 130.562 21.064Z" fill="#6200EE"/>
<path d="M28.3322 7.60221C27.9863 10.6262 23.9024 12.6165 19.2106 12.0477C14.5189 11.4789 10.9959 8.56647 11.3419 5.54251C11.6878 2.51856 15.7717 0.528244 20.4635 1.09701C25.1552 1.66578 28.6782 4.57826 28.3322 7.60221Z" fill="white"/>
<path d="M31.9803 15.0535C31.7974 16.6525 30.3898 17.7961 28.8365 17.6078C27.2831 17.4194 26.1722 15.9705 26.3551 14.3716C26.538 12.7726 27.9456 11.629 29.4989 11.8173C31.0523 12.0056 32.1632 13.4545 31.9803 15.0535Z" fill="white"/>
<path d="M11.6989 12.5948C11.516 14.1938 10.1085 15.3374 8.55512 15.1491C7.00176 14.9608 5.89082 13.5119 6.07375 11.9129C6.25669 10.3139 7.66423 9.17032 9.21758 9.35863C10.7709 9.54694 11.8819 10.9958 11.6989 12.5948Z" fill="white"/>
<path d="M30.758 14.8854C30.6535 15.7991 29.8492 16.4526 28.9615 16.345C28.0739 16.2374 27.4391 15.4094 27.5436 14.4957C27.6481 13.582 28.4524 12.9285 29.3401 13.0361C30.2277 13.1437 30.8625 13.9717 30.758 14.8854Z" fill="white"/>
<path d="M10.4766 12.4267C10.3721 13.3404 9.56779 13.9939 8.68016 13.8863C7.79252 13.7787 7.1577 12.9508 7.26223 12.0371C7.36677 11.1233 8.17107 10.4699 9.05871 10.5775C9.94634 10.6851 10.5812 11.513 10.4766 12.4267Z" fill="white"/>
<path d="M29.1486 14.7102C28.5823 19.6594 23.5832 23.1212 17.9827 22.4423C12.3821 21.7634 8.30103 17.2008 8.86726 12.2515C9.43348 7.30224 14.4326 3.84045 20.0332 4.51938C25.6337 5.19832 29.7148 9.76089 29.1486 14.7102Z" fill="white"/>
<path d="M27.5414 14.5153C27.0672 18.6597 22.8623 21.5561 18.1494 20.9848C13.4365 20.4135 9.88844 16.5755 10.4744 12.4463C11.6752 3.98541 19.2783 11.1174 19.2783 11.1174C19.2783 11.1174 28.7131 4.27367 27.5414 14.5153Z" fill="white"/>
<path d="M9.06424 8.59132L10.0315 5.26668C10.0315 5.26668 10.1057 5.13214 10.1716 5.06146C10.3154 4.90734 10.6458 4.81429 10.6458 4.81429C10.6458 4.81429 12.0905 4.49632 13.0278 4.36863C15.439 4.04016 16.8362 4.06655 19.2557 4.32188C21.122 4.51884 22.167 4.72862 23.9764 5.23893C25.8227 5.75964 27.8891 6.65214 28.5813 6.96903C29.2734 7.28593 29.602 7.67705 29.602 7.67705L29.7053 11.5387C29.7053 11.5387 29.6409 11.8294 29.4435 11.9549C29.2461 12.0803 28.9158 12.0406 28.9158 12.0406C28.9158 12.0406 27.3649 11.282 26.3337 10.8927C24.6163 10.2442 23.601 10.0177 21.8047 9.66209C18.7948 9.06622 16.1264 8.92595 13.9785 9.05049C11.8306 9.17503 9.75854 9.59203 9.75854 9.59203C9.75854 9.59203 9.34232 9.46621 9.19372 9.25229C9.04493 9.0381 9.06424 8.59132 9.06424 8.59132Z" fill="white"/>
<path d="M20.5172 5.18055L19.3857 5.04339L19.2605 6.13753L20.392 6.2747L20.5172 5.18055Z" fill="#EC5D39"/>
<path d="M18.1634 6.00455L19.2605 6.13753L19.1273 7.3023L18.0301 7.16929L18.1634 6.00455Z" fill="#EC5D39"/>
<path d="M19.1273 7.3023L20.2585 7.44217L20.1296 8.56893L18.9981 8.43176L19.1273 7.3023Z" fill="#EC5D39"/>
<path d="M21.3903 7.57665L20.2589 7.43949L20.5172 5.18055L21.6488 5.31775L21.3903 7.57665Z" fill="#EC5D39"/>
<path d="M16.2054 13.9C16.117 14.6723 15.4372 15.2247 14.687 15.1337C13.9367 15.0428 13.4001 14.3429 13.4885 13.5706C13.5768 12.7983 14.2567 12.246 15.0069 12.3369C15.7572 12.4279 16.2938 13.1277 16.2054 13.9Z" fill="white"/>
<path d="M24.5092 14.9066C24.4209 15.6789 23.741 16.2313 22.9908 16.1403C22.2405 16.0494 21.7039 15.3496 21.7923 14.5773C21.8807 13.805 22.5605 13.2526 23.3107 13.3436C24.061 13.4345 24.5976 14.1343 24.5092 14.9066Z" fill="white"/>
<path d="M17.4862 16.0752C17.3638 16.0677 17.2571 16.1643 17.2677 16.29C17.2946 16.6069 17.4147 16.9098 17.6148 17.1569C17.8625 17.4629 18.2142 17.6603 18.5982 17.7089C18.9823 17.7575 19.3699 17.6537 19.6822 17.4187C19.9345 17.2288 20.1224 16.9648 20.223 16.6641C20.2629 16.5448 20.1821 16.4245 20.0616 16.4012C19.9412 16.3779 19.8272 16.461 19.7804 16.5776C19.7053 16.7647 19.5813 16.9286 19.4203 17.0498C19.199 17.2163 18.9244 17.2898 18.6524 17.2554C18.3803 17.221 18.1313 17.0812 17.9558 16.8644C17.8281 16.7066 17.7463 16.5167 17.7175 16.3165C17.6995 16.1916 17.6085 16.0826 17.4862 16.0752Z" fill="white"/>
<path d="M18.9154 14.9459C18.5521 14.9074 18.0722 15.0377 18.0214 15.229C17.9707 15.4203 18.099 15.7865 18.332 16.0153C18.4986 16.1789 18.8591 16.2869 18.8591 16.2869C18.8591 16.2869 19.3131 16.184 19.5013 15.9741C19.6565 15.8011 19.7228 15.6664 19.7465 15.4263C19.7703 15.1863 19.2857 14.9851 18.9154 14.9459Z" fill="white"/>
<path d="M13.0194 14.9287C12.9696 15.3638 12.5866 15.675 12.1639 15.6237C11.7412 15.5725 11.4389 15.1782 11.4887 14.7431C11.5385 14.308 11.9215 13.9968 12.3442 14.0481C12.7668 14.0993 13.0691 14.4936 13.0194 14.9287Z" fill="white"/>
<path d="M26.5895 16.5737C26.5397 17.0088 26.1567 17.32 25.734 17.2688C25.3113 17.2175 25.009 16.8233 25.0588 16.3882C25.1086 15.9531 25.4916 15.6419 25.9143 15.6931C26.337 15.7444 26.6393 16.1386 26.5895 16.5737Z" fill="white"/>
<path d="M28.2782 8.07491C27.9322 11.0989 23.8483 13.0892 19.1566 12.5204C14.4648 11.9516 10.9418 9.03916 11.2878 6.01521C11.6338 2.99126 15.7176 1.00094 20.4094 1.56971C25.1012 2.13848 28.6241 5.05096 28.2782 8.07491Z" fill="white"/>
<path d="M31.9618 15.2156C31.7592 16.9861 30.3358 18.2688 28.7824 18.0804C27.2291 17.8921 26.134 16.3042 26.3366 14.5337C26.5392 12.7631 27.9626 11.4805 29.516 11.6688C31.0693 11.8571 32.1643 13.4451 31.9618 15.2156Z" fill="white"/>
<path d="M11.6449 13.0675C11.462 14.6665 10.0544 15.8101 8.50107 15.6218C6.94772 15.4335 5.83678 13.9846 6.01971 12.3856C6.20264 10.7866 7.61018 9.64301 9.16354 9.83132C10.7169 10.0196 11.8278 11.4685 11.6449 13.0675Z" fill="white"/>
<path d="M30.704 15.358C30.5994 16.2717 29.7951 16.9252 28.9075 16.8176C28.0199 16.71 27.385 15.882 27.4896 14.9683C27.5941 14.0546 28.3984 13.4011 29.2861 13.5087C30.1737 13.6163 30.8085 14.4443 30.704 15.358Z" fill="white"/>
<path d="M10.4226 12.8993C10.3181 13.813 9.51374 14.4665 8.62611 14.3589C7.73848 14.2513 7.10365 13.4234 7.20819 12.5097C7.31272 11.5959 8.11703 10.9425 9.00466 11.0501C9.89229 11.1577 10.5271 11.9856 10.4226 12.8993Z" fill="white"/>
<path d="M29.0945 15.1829C28.5283 20.1321 23.5292 23.5939 17.9287 22.915C12.3281 22.236 8.24701 17.6735 8.81324 12.7242C9.37946 7.77493 14.3786 4.31314 19.9791 4.99208C25.5797 5.67102 29.6608 10.2336 29.0945 15.1829Z" fill="white"/>
<path d="M27.4873 14.988C27.0131 19.1323 22.8082 22.0288 18.0953 21.4575C13.3824 20.8862 9.83438 17.0482 10.4204 12.919C11.6211 4.45811 19.2242 11.59 19.2242 11.59C19.2242 11.59 28.659 4.74636 27.4873 14.988Z" fill="white"/>
<path d="M9.0102 9.06402L9.97744 5.73938C9.97744 5.73938 10.0517 5.60483 10.1176 5.53416C10.2613 5.38003 10.5917 5.28699 10.5917 5.28699C10.5917 5.28699 12.0365 4.96902 12.9738 4.84133C15.385 4.51285 16.7822 4.53924 19.2017 4.79458C21.068 4.99153 22.113 5.20132 23.9224 5.71162C25.7687 6.23234 27.8351 7.12483 28.5272 7.44173C29.2194 7.75862 29.548 8.14975 29.548 8.14975L29.6513 12.0114C29.6513 12.0114 29.5868 12.3021 29.3894 12.4276C29.1921 12.553 28.8617 12.5133 28.8617 12.5133C28.8617 12.5133 27.3108 11.7547 26.2796 11.3653C24.5623 10.7169 23.547 10.4904 21.7507 10.1348C18.7407 9.53891 16.0723 9.39865 13.9245 9.52319C11.7766 9.64772 9.7045 10.0647 9.7045 10.0647C9.7045 10.0647 9.28828 9.9389 9.13968 9.72499C8.99089 9.5108 9.0102 9.06402 9.0102 9.06402Z" fill="white"/>
<path d="M20.4631 5.65325L19.3317 5.51608L19.2065 6.61022L20.338 6.74739L20.4631 5.65325Z" fill="#EC5D39"/>
<path d="M18.1093 6.47724L19.2065 6.61022L19.0733 7.77499L17.9761 7.64198L18.1093 6.47724Z" fill="#EC5D39"/>
<path d="M19.0733 7.77499L20.2044 7.91486L20.0755 9.04162L18.944 8.90446L19.0733 7.77499Z" fill="#EC5D39"/>
<path d="M21.3363 8.04935L20.2048 7.91218L20.4631 5.65325L21.5947 5.79044L21.3363 8.04935Z" fill="#EC5D39"/>
<path d="M16.1513 14.3726C16.063 15.1449 15.3831 15.6973 14.6329 15.6063C13.8826 15.5153 13.3461 14.8155 13.4344 14.0432C13.5228 13.2709 14.2026 12.7186 14.9529 12.8095C15.7031 12.9005 16.2397 13.6003 16.1513 14.3726Z" fill="white"/>
<path d="M24.4552 15.3792C24.3668 16.1515 23.687 16.7039 22.9367 16.6129C22.1865 16.522 21.6499 15.8222 21.7382 15.0499C21.8266 14.2776 22.5064 13.7252 23.2567 13.8162C24.0069 13.9071 24.5435 14.6069 24.4552 15.3792Z" fill="white"/>
<path d="M17.4321 16.5478C17.3098 16.5403 17.2031 16.6369 17.2137 16.7626C17.2405 17.0794 17.3607 17.3824 17.5608 17.6295C17.8085 17.9355 18.1601 18.1329 18.5442 18.1815C18.9282 18.2301 19.3158 18.1263 19.6282 17.8912C19.8805 17.7014 20.0683 17.4374 20.169 17.1367C20.2089 17.0174 20.128 16.8971 20.0076 16.8738C19.8871 16.8505 19.7732 16.9336 19.7264 17.0502C19.6513 17.2373 19.5273 17.4012 19.3662 17.5224C19.145 17.6889 18.8704 17.7624 18.5983 17.728C18.3263 17.6936 18.0772 17.5537 17.9017 17.337C17.774 17.1792 17.6923 16.9893 17.6635 16.7891C17.6455 16.6642 17.5545 16.5552 17.4321 16.5478Z" fill="white"/>
<path d="M18.8613 15.4185C18.498 15.38 18.0181 15.5103 17.9674 15.7016C17.9166 15.8929 18.0449 16.2591 18.2779 16.4879C18.4445 16.6515 18.805 16.7595 18.805 16.7595C18.805 16.7595 19.259 16.6566 19.4472 16.4467C19.6024 16.2736 19.6687 16.1389 19.6925 15.8989C19.7162 15.6589 19.2316 15.4577 18.8613 15.4185Z" fill="white"/>
<path d="M12.9653 15.4014C12.9156 15.8365 12.5326 16.1477 12.1099 16.0964C11.6872 16.0452 11.3849 15.6509 11.4347 15.2158C11.4845 14.7807 11.8675 14.4695 12.2901 14.5208C12.7128 14.572 13.0151 14.9663 12.9653 15.4014Z" fill="white"/>
<path d="M26.5354 17.0464C26.4856 17.4815 26.1026 17.7927 25.6799 17.7415C25.2573 17.6902 24.955 17.296 25.0047 16.8609C25.0545 16.4258 25.4375 16.1146 25.8602 16.1658C26.2829 16.2171 26.5852 16.6113 26.5354 17.0464Z" fill="white"/>
<path d="M27.3787 8.67831C27.066 11.4113 23.3751 13.2102 19.1346 12.6961C14.8942 12.1821 11.7102 9.5498 12.0229 6.81676C12.3355 4.08371 16.0265 2.28487 20.2669 2.79892C24.5073 3.31298 27.6914 5.94527 27.3787 8.67831Z" fill="#7A1DFF"/>
<path d="M30.6758 15.4127C30.5105 16.8578 29.2383 17.8914 27.8344 17.7212C26.4305 17.551 25.4264 16.2415 25.5918 14.7963C25.7571 13.3512 27.0292 12.3176 28.4331 12.4878C29.8371 12.658 30.8411 13.9675 30.6758 15.4127Z" fill="#FE973D"/>
<path d="M12.3456 13.1906C12.1803 14.6358 10.9081 15.6694 9.50421 15.4992C8.10029 15.329 7.09622 14.0195 7.26155 12.5743C7.42689 11.1291 8.69902 10.0956 10.1029 10.2658C11.5069 10.4359 12.5109 11.7455 12.3456 13.1906Z" fill="#FE973D"/>
<path d="M29.5711 15.2607C29.4766 16.0866 28.7497 16.6772 27.9475 16.5799C27.1452 16.4827 26.5715 15.7344 26.6659 14.9086C26.7604 14.0827 27.4873 13.4921 28.2896 13.5894C29.0918 13.6866 29.6656 14.4349 29.5711 15.2607Z" fill="#FED2A8"/>
<path d="M11.2409 13.0386C11.1464 13.8644 10.4195 14.455 9.61725 14.3578C8.81502 14.2605 8.24126 13.5122 8.33574 12.6864C8.43022 11.8606 9.15715 11.27 9.95939 11.3672C10.7616 11.4645 11.3354 12.2128 11.2409 13.0386Z" fill="#FED2A8"/>
<path d="M28.1165 15.1024C27.6047 19.5756 23.0865 22.7043 18.0248 22.0907C12.963 21.4771 9.27453 17.3534 9.78628 12.8803C10.298 8.40715 14.8162 5.2784 19.878 5.89202C24.9397 6.50564 28.6282 10.6293 28.1165 15.1024Z" fill="#FE973D"/>
<path d="M26.6639 14.9263C26.2354 18.6719 22.435 21.2898 18.1755 20.7734C13.916 20.257 10.7093 16.7883 11.2389 13.0564C12.3241 5.4094 19.1958 11.8552 19.1958 11.8552C19.1958 11.8552 27.7229 5.66992 26.6639 14.9263Z" fill="#FFD3A8"/>
<path d="M9.96436 9.5722L10.8386 6.5674C10.8386 6.5674 10.9057 6.4458 10.9652 6.38192C11.0951 6.24262 11.3937 6.15853 11.3937 6.15853C11.3937 6.15853 12.6995 5.87115 13.5466 5.75575C15.7259 5.45887 16.9886 5.48272 19.1754 5.71349C20.8622 5.8915 21.8066 6.0811 23.442 6.54232C25.1106 7.01294 26.9782 7.81957 27.6038 8.10598C28.2293 8.39239 28.5264 8.74589 28.5264 8.74589L28.6197 12.2361C28.6197 12.2361 28.5615 12.4988 28.3831 12.6122C28.2047 12.7256 27.9061 12.6896 27.9061 12.6896C27.9061 12.6896 26.5044 12.0041 25.5724 11.6521C24.0203 11.066 23.1027 10.8614 21.4792 10.54C18.7588 10.0014 16.3471 9.87464 14.4059 9.9872C12.4646 10.0998 10.5919 10.4766 10.5919 10.4766C10.5919 10.4766 10.2157 10.3629 10.0814 10.1696C9.9469 9.976 9.96436 9.5722 9.96436 9.5722Z" fill="#6200EE"/>
<path d="M21.3382 6.61349L19.293 6.36559L19.1799 7.35447L20.2025 7.47844L20.0821 8.53108L21.1047 8.65505L21.3382 6.61349Z" fill="#EC5D39"/>
<path d="M18.1882 7.23422L19.1799 7.35447L19.0594 8.40712L18.0678 8.28691L18.1882 7.23422Z" fill="#EC5D39"/>
<path d="M19.0594 8.40712L20.0818 8.53355L19.9653 9.55192L18.9426 9.42795L19.0594 8.40712Z" fill="#EC5D39"/>
<path d="M16.4359 13.3442C16.3561 14.0422 15.7416 14.5415 15.0636 14.4593C14.3855 14.377 13.9005 13.7446 13.9804 13.0466C14.0602 12.3486 14.6747 11.8493 15.3527 11.9315C16.0308 12.0137 16.5158 12.6462 16.4359 13.3442Z" fill="#6200EE"/>
<path d="M23.9409 14.2541C23.8611 14.9521 23.2466 15.4513 22.5686 15.3691C21.8905 15.2869 21.4055 14.6544 21.4854 13.9564C21.5652 13.2584 22.1797 12.7592 22.8577 12.8414C23.5358 12.9236 24.0208 13.556 23.9409 14.2541Z" fill="#6200EE"/>
<path d="M17.5936 15.3102C17.483 15.3035 17.3865 15.3907 17.3961 15.5043C17.4204 15.7907 17.529 16.0645 17.7098 16.2879C17.9337 16.5644 18.2515 16.7428 18.5986 16.7867C18.9457 16.8307 19.296 16.7369 19.5783 16.5244C19.8063 16.3528 19.9762 16.1143 20.0671 15.8424C20.1032 15.7346 20.0301 15.6259 19.9212 15.6048C19.8124 15.5838 19.7094 15.6589 19.6671 15.7643C19.5992 15.9334 19.4871 16.0815 19.3416 16.1911C19.1416 16.3416 18.8934 16.408 18.6476 16.3769C18.4017 16.3457 18.1766 16.2194 18.018 16.0235C17.9026 15.8809 17.8287 15.7093 17.8026 15.5283C17.7864 15.4155 17.7042 15.3169 17.5936 15.3102Z" fill="#6200EE"/>
<path d="M18.8853 14.2895C18.5569 14.2548 18.1232 14.3725 18.0774 14.5454C18.0315 14.7183 18.1474 15.0493 18.358 15.2561C18.5086 15.4039 18.8344 15.5015 18.8344 15.5015C18.8344 15.5015 19.2447 15.4085 19.4148 15.2188C19.5551 15.0624 19.615 14.9407 19.6365 14.7238C19.658 14.5068 19.22 14.325 18.8853 14.2895Z" fill="#6200EE"/>
<path d="M13.5957 15.7967C13.5324 16.3502 13.0452 16.746 12.5076 16.6808C11.9699 16.6156 11.5854 16.1141 11.6487 15.5607C11.712 15.0072 12.1992 14.6114 12.7369 14.6765C13.2745 14.7417 13.6591 15.2432 13.5957 15.7967Z" fill="#EC5D39"/>
<path d="M25.6132 17.2536C25.5499 17.8071 25.0627 18.2029 24.525 18.1377C23.9874 18.0725 23.6028 17.571 23.6661 17.0176C23.7295 16.4641 24.2166 16.0683 24.7543 16.1334C25.292 16.1986 25.6765 16.7001 25.6132 17.2536Z" fill="#EC5D39"/>
<path d="M108 5H111V8H108V5Z" fill="#6200EE"/>
<path d="M111 8L114 8.00711V11H111V8Z" fill="#6200EE"/>
<path d="M111 2H114V5H111V2Z" fill="#6200EE"/>
<path d="M114 5H117V8H114V5Z" fill="#6200EE"/>
<rect x="114" y="2" width="3" height="3" fill="#6200EE"/>
</svg>
