<svg width="700" height="320" viewBox="0 0 700 320" fill="none" xmlns="http://www.w3.org/2000/svg">
<g clip-path="url(#clip0_2618_5784)">
<rect width="700" height="320" fill="white"/>
<path d="M1046.14 10.4319L1034.95 8M1046.14 10.4319H1012.99M1046.14 10.4319L1057.69 12.9441M1046.14 10.4319H1069.61M1034.95 8L1039.02 8.00095L1043.05 8.00621L1046.99 8.02102L1050.81 8.05018L1054.47 8.0975L1057.92 8.16872L1061.12 8.26766L1064.1 8.39383L1066.65 8.5683L1068.97 8.77048L1069.61 8.8413V10.4319M1034.95 8H1002.33M1002.33 8H969.717M1002.33 8L1012.99 10.4319M969.717 8H937.1M969.717 8L979.837 10.4319M937.1 8H904.483M937.1 8L946.688 10.4319M904.483 8H871.867M904.483 8L913.539 10.4319M871.867 8H839.25M871.867 8L880.39 10.4319M839.25 8H806.633M839.25 8L847.24 10.4319M806.633 8H774.017M806.633 8L814.091 10.4319M774.017 8H741.4M774.017 8L780.941 10.4319M741.4 8H708.783M741.4 8L747.792 10.4319M708.783 8H676.167M708.783 8L714.643 10.4319M676.167 8H643.55M676.167 8L681.493 10.4319M643.55 8H610.933M643.55 8L644.734 8.6008L646.528 9.51038L648.344 10.4319M610.933 8H578.317M610.933 8L611.985 8.6008L615.194 10.4319M578.317 8H545.7M578.317 8L582.045 10.4319M545.7 8H513.083M545.7 8L546.886 8.90287L548.088 9.81627L548.491 10.1236L548.896 10.4319M513.083 8H480.467M513.083 8L514.072 8.90287L514.404 9.2059L514.738 9.51038L515.747 10.4319M480.467 8H447.85M480.467 8L482.598 10.4319M447.85 8L448.047 8.29968L448.244 8.6008L449.245 10.1236L449.448 10.4319M447.85 8H415.234M415.234 8H382.616M415.234 8L416.299 10.4319M382.616 8H350M382.616 8L382.814 8.90287L383.149 10.4319M350 8H317.384M350 8V10.4319M317.384 8H284.766M317.384 8L317.186 8.90287L316.851 10.4319M284.766 8H252.15M284.766 8L283.701 10.4319M252.15 8L251.953 8.29968L251.756 8.6008L250.755 10.1236L250.552 10.4319M252.15 8H219.534M219.534 8H186.916M219.534 8L217.673 10.1236L217.402 10.4319M186.916 8H154.3M186.916 8L185.928 8.90287L185.596 9.2059L184.927 9.81627L184.591 10.1236L184.253 10.4319M154.3 8H121.683M154.3 8L153.114 8.90287L151.913 9.81627L151.509 10.1236L151.104 10.4319M121.683 8H89.067M121.683 8L117.955 10.4319M89.067 8H56.4498M89.067 8L88.0146 8.6008L84.8056 10.4319M56.4498 8H23.8334M56.4498 8L51.6562 10.4319M23.8334 8H-8.78302M23.8334 8L18.5068 10.4319M-8.78302 8H-41.4002M-8.78302 8L-14.6426 10.4319M-41.4002 8H-74.0166M-41.4002 8L-47.792 10.4319M-74.0166 8H-106.633M-74.0166 8L-80.9414 10.4319M-106.633 8H-139.249M-106.633 8L-114.091 10.4319M-139.249 8H-171.867M-139.249 8L-147.24 10.4319M-171.867 8H-204.483M-171.867 8L-180.39 10.4319M-204.483 8H-237.1M-204.483 8L-213.539 10.4319M-237.1 8H-269.717M-237.1 8L-246.688 10.4319M-269.717 8H-302.333M-269.717 8L-279.837 10.4319M-302.333 8H-334.95M-302.333 8L-312.986 10.4319M-334.95 8L-339.02 8.00095L-343.048 8.00621L-346.993 8.02102L-350.813 8.05018L-354.468 8.0975L-357.919 8.16872L-361.123 8.26766L-364.098 8.39383L-366.65 8.5683L-368.974 8.77048L-369.612 8.84131V10.4319M-334.95 8L-346.136 10.4319M-279.837 10.4319H-246.688M-279.837 10.4319H-312.986M-279.837 10.4319L-290.295 12.9441M-246.688 10.4319L-256.595 12.9441M-246.688 10.4319H-213.539M-147.24 10.4319H-114.091M-147.24 10.4319H-180.39M-147.24 10.4319L-149.278 11.0523L-155.496 12.9441M-114.091 10.4319L-121.796 12.9441M-114.091 10.4319H-80.9414M-14.6426 10.4319H18.5068M-14.6426 10.4319H-47.792M-14.6426 10.4319L-16.1373 11.0523L-16.8899 11.3639L-20.6971 12.9441M18.5068 10.4319L17.8285 10.7411L17.1478 11.0523L13.0032 12.9441M18.5068 10.4319H51.6562M117.955 10.4319L117.48 10.7411L114.102 12.9441M117.955 10.4319H151.104M117.955 10.4319H84.8056M151.104 10.4319L150.289 11.0523L149.878 11.3639L149.467 11.6775L147.802 12.9441M151.104 10.4319H184.253M250.552 10.4319H283.701M250.552 10.4319H217.402M250.552 10.4319L248.901 12.9441M283.701 10.4319L283.566 10.7411L283.43 11.0523L283.293 11.3639L282.879 12.3079L282.601 12.9441M283.701 10.4319H316.851M383.149 10.4319H416.299M383.149 10.4319H350M383.149 10.4319L383.7 12.9441M416.299 10.4319L416.434 10.7411L416.57 11.0523L416.707 11.3639L417.399 12.9441M416.299 10.4319H449.448M515.747 10.4319H548.896M515.747 10.4319H482.598M515.747 10.4319L516.426 11.0523L517.802 12.3079L518.149 12.6253L518.499 12.9441M548.896 10.4319L549.711 11.0523L550.122 11.3639L550.534 11.6775L552.198 12.9441M548.896 10.4319H582.045M648.344 10.4319H681.493M648.344 10.4319H615.194M648.344 10.4319L649.567 11.0523L650.183 11.3639L653.297 12.9441M681.493 10.4319L682.172 10.7411L682.852 11.0523L686.997 12.9441M681.493 10.4319H714.643M780.941 10.4319H814.091M780.941 10.4319H747.792M780.941 10.4319L782.708 11.0523L783.597 11.3639L788.096 12.9441M814.091 10.4319L821.796 12.9441M814.091 10.4319H847.24M913.539 10.4319H946.688M913.539 10.4319H880.39M913.539 10.4319L922.895 12.9441M946.688 10.4319L956.595 12.9441M946.688 10.4319H979.837M-369.729 33.1736H-369.612M-336.363 33.1736L-323.707 29.964M-336.363 33.1736L-349.505 36.5059M-336.363 33.1736H-298.232M-336.363 33.1736H-369.612M-323.707 29.964H-361.135M-323.707 29.964L-311.509 26.8706M-323.707 29.964H-286.279M-361.135 29.964L-348.259 26.8706M-361.135 29.964H-369.612M-361.135 29.964L-369.612 32.0002M-323.859 21.0079H-288.392M-323.859 21.0079L-312.286 18.2275M-323.859 21.0079H-359.324M-323.859 21.0079L-335.842 23.8871M-288.392 21.0079L-277.429 18.2275M-288.392 21.0079L-299.745 23.8871M-288.392 21.0079H-252.926M-312.286 18.2275H-277.429M-312.286 18.2275L-301.105 15.5414M-312.286 18.2275H-347.143M-277.429 18.2275H-242.572M-277.429 18.2275L-266.836 15.5414M-369.978 83.8332H-369.612M-339.21 83.8332L-322.889 78.512M-339.21 83.8332L-356.341 89.4193M-339.21 83.8332H-289.98M-339.21 83.8332H-369.612M-322.889 78.512L-307.324 73.437M-322.889 78.512H-274.826M-322.889 78.512H-369.612M-354.276 73.437H-307.324M-354.276 73.437L-338.353 68.5914M-354.276 73.437H-369.612M-354.276 73.437L-369.612 78.1042M-323.134 63.9599H-278.259M-323.134 63.9599L-308.574 59.5291M-323.134 63.9599H-368.01M-323.134 63.9599L-338.353 68.5914M-278.259 63.9599L-264.669 59.5291M-278.259 63.9599L-292.463 68.5914M-278.259 63.9599H-233.383M-308.574 59.5291H-264.669M-308.574 59.5291H-352.479M-308.574 59.5291L-294.63 55.2857M-264.669 59.5291L-251.655 55.2857M-264.669 59.5291H-220.764M-268.442 47.3161H-227.213M-268.442 47.3161L-256.13 43.5693M-268.442 47.3161H-309.672M-268.442 47.3161L-281.265 51.2182M-227.213 47.3161L-215.722 43.5693M-227.213 47.3161L-239.18 51.2182M-227.213 47.3161H-185.983M-256.13 43.5693H-215.722M-256.13 43.5693H-296.539M-256.13 43.5693L-244.299 39.9688M-215.722 43.5693L-204.679 39.9688M-215.722 43.5693H-175.313M-221.97 33.1736H-183.838M-221.97 33.1736L-211.423 29.964M-221.97 33.1736H-260.101M-221.97 33.1736L-232.921 36.5059M-183.838 33.1736L-173.995 29.964M-183.838 33.1736L-194.059 36.5059M-183.838 33.1736H-145.707M-211.423 29.964H-173.995M-211.423 29.964H-248.851M-211.423 29.964L-201.258 26.8706M-173.995 29.964L-164.507 26.8706M-173.995 29.964H-136.567M-181.994 21.0079H-146.527M-181.994 21.0079L-172.858 18.2275M-181.994 21.0079H-217.459M-181.994 21.0079L-191.454 23.8871M-146.527 21.0079L-138.001 18.2275M-146.527 21.0079L-155.358 23.8871M-146.527 21.0079H-111.061M-172.858 18.2275H-138.001M-172.858 18.2275L-164.03 15.5414M-172.858 18.2275H-207.715M-138.001 18.2275H-103.143M-138.001 18.2275L-129.761 15.5414M-344.391 176.088L-321.422 165.602M-344.391 176.088L-368.988 187.315M-344.391 176.088H-274.952M-344.391 176.088H-369.612M-321.422 165.602L-299.922 155.789M-321.422 165.602H-254.28M-321.422 165.602H-369.612M-321.888 137.933H-260.807M-321.888 137.933L-302.26 129.788M-321.888 137.933L-342.734 146.584M-321.888 137.933H-369.612M-260.807 137.933L-242.964 129.788M-260.807 137.933L-279.758 146.584M-260.807 137.933H-199.726M-302.26 129.788H-242.964M-302.26 129.788H-361.556M-302.26 129.788L-283.745 122.105M-242.964 129.788L-226.132 122.105M-242.964 129.788H-183.667M-249.702 107.977H-195.183M-249.702 107.977L-234.015 101.467M-249.702 107.977H-304.22M-249.702 107.977L-266.254 114.846M-195.183 107.977L-180.923 101.467M-195.183 107.977L-210.231 114.846M-195.183 107.977H-140.665M-234.015 101.467H-180.923M-234.015 101.467H-287.107M-234.015 101.467L-219.129 95.2897M-180.923 101.467L-167.389 95.2897M-180.923 101.467H-127.831M-191.522 83.8332H-142.292M-191.522 83.8332L-178.699 78.512M-191.522 83.8332H-240.751M-191.522 83.8332L-204.982 89.4193M-142.292 83.8332L-130.635 78.512M-142.292 83.8332L-154.529 89.4193M-142.292 83.8332H-93.0631M-178.699 78.512H-130.635M-178.699 78.512H-226.762M-178.699 78.512L-166.469 73.437M-130.635 78.512L-119.517 73.437M-130.635 78.512H-82.5718M-143.632 63.9599H-98.7563M-143.632 63.9599L-132.954 59.5291M-143.632 63.9599H-188.508M-143.632 63.9599L-154.792 68.5914M-98.7563 63.9599L-89.049 59.5291M-98.7563 63.9599L-108.902 68.5914M-98.7563 63.9599H-53.881M-132.954 59.5291H-89.049M-132.954 59.5291H-176.859M-132.954 59.5291L-122.729 55.2857M-89.049 59.5291L-79.7533 55.2857M-89.049 59.5291H-45.1444M-103.524 47.3161H-62.2952M-103.524 47.3161L-94.4956 43.5693M-103.524 47.3161H-144.754M-103.524 47.3161L-112.927 51.2182M-62.2952 47.3161L-61.2503 46.8396L-54.0871 43.5693M-62.2952 47.3161L-70.8428 51.2182M-62.2952 47.3161H-21.0652M-94.4956 43.5693H-54.0871M-94.4956 43.5693H-134.904M-94.4956 43.5693L-85.819 39.9688M-54.0871 43.5693L-46.1991 39.9688M-54.0871 43.5693H-13.6779M-69.4448 33.1736H-31.3129M-69.4448 33.1736L-61.7098 29.964M-69.4448 33.1736H-107.576M-69.4448 33.1736L-77.4753 36.5059M-31.3129 33.1736L-24.2817 29.964M-31.3129 33.1736L-34.0182 34.4086L-38.614 36.5059M-31.3129 33.1736H6.81832M-61.7098 29.964H-24.2817M-61.7098 29.964H-99.1379M-61.7098 29.964L-54.2558 26.8706M-24.2817 29.964L-17.5053 26.8706M-24.2817 29.964H13.1464M-40.1289 21.0079H-4.66248M-40.1289 21.0079L-33.429 18.2275M-40.1289 21.0079H-75.5945M-40.1289 21.0079L-47.0664 23.8871M-4.66248 21.0079L-0.0742205 18.9139L0.678395 18.5698L1.42872 18.2275M-4.66248 21.0079L-10.9696 23.8871M-4.66248 21.0079H30.8039M-33.429 18.2275H1.42872M-33.429 18.2275L-26.9555 15.5414M-33.429 18.2275H-68.286M1.42872 18.2275H36.2858M1.42872 18.2275L7.31304 15.5414M-319.232 295.528H-223.627M-319.232 295.528L-289.128 275.897M-319.232 295.528L-352.312 317.1M-319.232 295.528L-369.612 295.528M-223.627 295.528L-197.824 275.897M-223.627 295.528L-251.981 317.1M-223.627 295.528H-128.023M-289.128 275.897H-197.824M-289.128 275.897L-261.616 257.956M-289.128 275.897H-369.612M-197.824 275.897L-174.242 257.956M-197.824 275.897H-106.52M-213.134 226.34H-132.686M-213.134 226.34L-191.666 212.34M-213.134 226.34H-293.582M-213.134 226.34L-236.375 241.495M-132.686 226.34L-114.285 212.34M-132.686 226.34L-152.607 241.495M-132.686 226.34H-52.2386M-191.666 212.34H-114.285M-191.666 212.34H-269.047M-191.666 212.34L-171.774 199.368M-114.285 212.34L-97.2346 199.368M-114.285 212.34H-36.9041M-136.073 176.088H-66.6346M-136.073 176.088L-119.995 165.602M-136.073 176.088H-205.513M-136.073 176.088L-153.292 187.315M-66.6346 176.088L-52.8525 165.602M-66.6346 176.088L-81.3927 187.315M-66.6346 176.088H2.80425M-119.995 165.602H-52.8525M-119.995 165.602H-187.137M-119.995 165.602L-104.946 155.789M-52.8525 165.602L-39.9535 155.789M-52.8525 165.602H14.2896M-77.5652 137.933H-16.4844M-77.5652 137.933L-65.074 129.788M-77.5652 137.933H-138.645M-77.5652 137.933L-90.8308 146.584M-16.4844 137.933L-5.77791 129.788M-16.4844 137.933L-27.855 146.584M-16.4844 137.933H44.5965M-65.074 129.788H-5.77791M-65.074 129.788H-124.371M-65.074 129.788L-53.2925 122.105M-5.77791 129.788L4.32069 122.105M-5.77791 129.788H53.5182M-31.6285 107.977H22.8904M-31.6285 107.977L-21.6461 101.467M-31.6285 107.977H-86.1466M-31.6285 107.977L-42.1618 114.846M22.8904 107.977L31.4464 101.467M22.8904 107.977L13.8616 114.846M22.8904 107.977H77.4086M-21.6461 101.467H31.4464M-21.6461 101.467H-74.7385M-21.6461 101.467L-12.1727 95.2897M31.4464 101.467L39.566 95.2897M31.4464 101.467H84.5388M5.39558 83.8332H54.6246M5.39558 83.8332L13.5557 78.512M5.39558 83.8332H-43.8341M5.39558 83.8332L-3.17006 89.4193M54.6246 83.8332L61.6191 78.512M54.6246 83.8332L47.2823 89.4193M54.6246 83.8332H103.854M13.5557 78.512H61.6191M13.5557 78.512H-34.5084M13.5557 78.512L21.338 73.437M61.6191 78.512L68.2898 73.437M61.6191 78.512H109.682M35.8705 63.9599H80.7466M35.8705 63.9599L42.6656 59.5291M35.8705 63.9599H-9.00491M35.8705 63.9599L28.7688 68.5914M80.7466 63.9599L86.5702 59.5291M80.7466 63.9599L74.6591 68.5914M80.7466 63.9599H125.622M42.6656 59.5291H86.5702M42.6656 59.5291H-1.23984M42.6656 59.5291L49.1728 55.2857M86.5702 59.5291L92.1479 55.2857M86.5702 59.5291H130.476M61.3935 47.3161H102.624M61.3935 47.3161L67.1391 43.5693M61.3935 47.3161H20.1642M61.3935 47.3161L55.4094 51.2182M102.624 47.3161L101.993 47.795L97.494 51.2182M102.624 47.3161L107.548 43.5693M102.624 47.3161H143.853M67.1391 43.5693H107.548M67.1391 43.5693H26.7306M67.1391 43.5693L72.6607 39.9688M107.548 43.5693L112.281 39.9688M107.548 43.5693H147.957M83.0808 33.1736H121.212M83.0808 33.1736L88.0026 29.964M83.0808 33.1736H44.9496M83.0808 33.1736L77.9708 36.5059M121.212 33.1736L125.431 29.964M121.212 33.1736L119.589 34.4086L118.494 35.2417L116.832 36.5059M121.212 33.1736H159.343M88.0026 29.964H125.431M88.0026 29.964H50.5745M88.0026 29.964L92.7461 26.8706M125.431 29.964L126.973 28.7906L127.99 28.0172L129.497 26.8706M125.431 29.964H162.859M101.737 21.0079H137.202M101.737 21.0079L104.948 18.9139L106 18.2275M101.737 21.0079H66.2703M101.737 21.0079L97.8816 23.5215L97.3216 23.8871M137.202 21.0079L139.956 18.9139L140.407 18.5698L140.857 18.2275M137.202 21.0079L135.327 22.4346L133.418 23.8871M137.202 21.0079H172.669M106 18.2275H140.857M106 18.2275L110.119 15.5414M106 18.2275H71.1427M140.857 18.2275H175.714M140.857 18.2275L144.388 15.5414M63.1865 295.528H158.791M63.1865 295.528L76.0878 275.897M63.1865 295.528H-32.4178M63.1865 295.528L49.0094 317.1M158.791 295.528L167.392 275.897M158.791 295.528L149.34 317.1M158.791 295.528H254.396M76.0878 275.897H167.392M76.0878 275.897H-15.2161M76.0878 275.897L87.879 257.956M167.392 275.897L175.253 257.956M167.392 275.897H258.696M108.657 226.34H189.104M108.657 226.34L117.858 212.34M108.657 226.34H28.2088M108.657 226.34L98.6964 241.495M189.104 226.34L195.238 212.34M189.104 226.34L182.465 241.495M189.104 226.34H269.553M117.858 212.34H195.238M117.858 212.34H40.4768M117.858 212.34L126.383 199.368M195.238 212.34L200.922 199.368M195.238 212.34H272.619M141.683 176.088H211.122M141.683 176.088L148.574 165.602M141.683 176.088H72.2439M141.683 176.088L134.304 187.315M211.122 176.088L215.716 165.602M211.122 176.088L206.203 187.315M211.122 176.088H280.561M148.574 165.602H215.716M148.574 165.602H81.4317M148.574 165.602L155.023 155.789M215.716 165.602L220.016 155.789M215.716 165.602H282.858M166.758 137.933H227.838M166.758 137.933L172.111 129.788M166.758 137.933H105.677M166.758 137.933L161.073 146.584M227.838 137.933L231.407 129.788M227.838 137.933L224.048 146.584M227.838 137.933H288.919M172.111 129.788H231.407M172.111 129.788H112.815M172.111 129.788L177.16 122.105M231.407 129.788L234.774 122.105M231.407 129.788H290.704M186.445 107.977H240.964M186.445 107.977L190.723 101.467M186.445 107.977H131.927M186.445 107.977L181.931 114.846M240.964 107.977L243.815 101.467M240.964 107.977L237.954 114.846M240.964 107.977H295.482M190.723 101.467H243.815M190.723 101.467H137.631M190.723 101.467L194.783 95.2897M243.815 101.467L246.522 95.2897M243.815 101.467H296.908M202.312 83.8332H251.541M202.312 83.8332L205.809 78.512M202.312 83.8332H153.083M202.312 83.8332L198.642 89.4193M251.541 83.8332L253.873 78.512M251.541 83.8332L249.094 89.4193M251.541 83.8332H300.771M205.809 78.512H253.873M205.809 78.512H157.746M205.809 78.512L207.079 76.5811L209.145 73.437M253.873 78.512L256.097 73.437M253.873 78.512H301.937M215.373 63.9599H260.249M215.373 63.9599L218.285 59.5291M215.373 63.9599H170.497M215.373 63.9599L213.104 67.4142L212.329 68.5914M260.249 63.9599L260.987 62.2755L262.19 59.5291M260.249 63.9599L258.219 68.5914M260.249 63.9599H305.125M218.285 59.5291L218.64 58.9885L221.074 55.2857M218.285 59.5291H262.19M218.285 59.5291H174.38M262.19 59.5291L262.897 57.9165L263.129 57.3845L263.362 56.8559L264.049 55.2857M262.19 59.5291H306.095M226.311 47.3161H267.541M226.311 47.3161L227.555 45.4238L227.862 44.9569L228.167 44.4918L228.472 44.0296L228.774 43.5693M226.311 47.3161H185.082M226.311 47.3161L223.747 51.2182M267.541 47.3161L268.778 44.4918L268.981 44.0296L269.182 43.5693M267.541 47.3161L265.832 51.2182M267.541 47.3161H308.771M228.774 43.5693H269.182M228.774 43.5693H188.365M228.774 43.5693L230.264 41.3023L230.557 40.8554L231.14 39.9688M269.182 43.5693L270.176 41.3023L270.372 40.8554L270.566 40.4109L270.76 39.9688M269.182 43.5693H309.592M235.606 33.1736H273.738M235.606 33.1736L237.716 29.964M235.606 33.1736H197.474M235.606 33.1736L235.066 33.9947L234.247 35.2417L233.416 36.5059M273.738 33.1736L273.558 33.5832L272.463 36.0825L272.277 36.5059M273.738 33.1736L275.144 29.964M273.738 33.1736H311.869M237.716 29.964H275.144M237.716 29.964H200.288M237.716 29.964L239.749 26.8706M275.144 29.964L275.658 28.7906L275.827 28.403L275.997 28.0172L276.499 26.8706M275.144 29.964H312.572M243.602 21.0079H279.067M243.602 21.0079L244.978 18.9139L245.428 18.2275M243.602 21.0079H208.135M243.602 21.0079L242.899 22.0756L242.664 22.4346L242.426 22.7955L241.709 23.8871M279.067 21.0079L279.222 20.6551L279.529 19.9539L279.834 19.259L280.285 18.2275M279.067 21.0079L278.442 22.4346L278.285 22.7955L277.966 23.5215L277.806 23.8871M279.067 21.0079H314.534M245.428 18.2275H280.285M245.428 18.2275L246.976 15.8721L247.194 15.5414M245.428 18.2275H210.571M280.285 18.2275L280.435 17.8867L280.584 17.5474L280.732 17.2095L280.879 16.873L281.318 15.8721L281.463 15.5414M280.285 18.2275H315.143M445.604 295.528H541.209M445.604 295.528L441.304 275.897M445.604 295.528H350M445.604 295.528L450.33 317.1M541.209 295.528L532.608 275.897M541.209 295.528L550.66 317.1M541.209 295.528H636.814M441.304 275.897H532.608M441.304 275.897H350M441.304 275.897L437.374 257.956M532.608 275.897L524.747 257.956M532.608 275.897H623.912M430.447 226.34H510.896M430.447 226.34L427.381 212.34M430.447 226.34H350M430.447 226.34L433.768 241.495M510.896 226.34L504.762 212.34M510.896 226.34L517.536 241.495M510.896 226.34H591.343M427.381 212.34H504.762M427.381 212.34H350M427.381 212.34L424.539 199.368M504.762 212.34L499.078 199.368M504.762 212.34H582.142M419.439 176.088H488.878M419.439 176.088L417.142 165.602M419.439 176.088H350M419.439 176.088L421.899 187.315M488.878 176.088L484.284 165.602M488.878 176.088L493.797 187.315M488.878 176.088H558.317M417.142 165.602H484.284M417.142 165.602H350M417.142 165.602L414.992 155.789M484.284 165.602L479.985 155.789M484.284 165.602H551.426M411.081 137.933H472.162M411.081 137.933L409.296 129.788M411.081 137.933H350M411.081 137.933L412.976 146.584M472.162 137.933L468.593 129.788M472.162 137.933L475.952 146.584M472.162 137.933H533.242M409.296 129.788H468.593M409.296 129.788H350M409.296 129.788L407.613 122.105M468.593 129.788L465.226 122.105M468.593 129.788H527.889M404.518 107.977H459.036M404.518 107.977L403.092 101.467M404.518 107.977H350M404.518 107.977L406.023 114.846M459.036 107.977L456.185 101.467M459.036 107.977L462.046 114.846M459.036 107.977H513.555M403.092 101.467H456.185M403.092 101.467H350M403.092 101.467L401.739 95.2897M456.185 101.467L453.478 95.2897M456.185 101.467H509.277M399.229 83.8332H448.459M399.229 83.8332L398.063 78.512M399.229 83.8332H350M399.229 83.8332L400.453 89.4193M448.459 83.8332L446.127 78.512M448.459 83.8332L450.906 89.4193M448.459 83.8332H497.688M398.063 78.512H446.127M398.063 78.512H350M398.063 78.512L396.952 73.437M446.127 78.512L443.903 73.437M446.127 78.512H494.191M394.875 63.9599H439.751M394.875 63.9599L393.905 59.5291M394.875 63.9599H350M394.875 63.9599L395.89 68.5914M439.751 63.9599L438.048 60.0726L437.81 59.5291M439.751 63.9599L441.781 68.5914M439.751 63.9599H484.627M393.905 59.5291L393.787 58.9885L392.975 55.2857M393.905 59.5291H437.81M393.905 59.5291H350M437.81 59.5291L437.103 57.9165L436.871 57.3845L436.638 56.8559L435.951 55.2857M437.81 59.5291H481.715M391.229 47.3161H432.459M391.229 47.3161L390.409 43.5693M391.229 47.3161H350M391.229 47.3161L391.546 48.7605L391.653 49.2471L391.759 49.7361L391.975 50.7216L392.085 51.2182M432.459 47.3161L431.222 44.4918L430.817 43.5693M432.459 47.3161L434.168 51.2182M432.459 47.3161H473.689M390.409 43.5693H430.817M390.409 43.5693H350M390.409 43.5693L389.62 39.9688M430.817 43.5693L429.825 41.3023L429.628 40.8554L429.434 40.4109L429.24 39.9688M430.817 43.5693H471.226M388.131 33.1736H426.262M388.131 33.1736L387.428 29.964M388.131 33.1736H350M388.131 33.1736L388.861 36.5059M426.262 33.1736L426.442 33.5832L427.537 36.0825L427.723 36.5059M426.262 33.1736L424.856 29.964M426.262 33.1736H464.394M387.428 29.964H424.856M387.428 29.964H350M387.428 29.964L386.751 26.8706M424.856 29.964L424.342 28.7906L424.173 28.403L424.003 28.0172L423.501 26.8706M424.856 29.964H462.284M385.467 21.0079H420.933M385.467 21.0079L384.857 18.2275M385.467 21.0079H350M385.467 21.0079L386.097 23.8871M420.933 21.0079L420.778 20.6551L420.47 19.9539L420.318 19.6055L420.015 18.9139L419.865 18.5698L419.714 18.2275M420.933 21.0079L421.558 22.4346L421.715 22.7955L422.034 23.5215L422.194 23.8871M420.933 21.0079H456.399M384.857 18.2275L384.783 17.8867L384.708 17.5474L384.634 17.2095L384.269 15.5414M384.857 18.2275H419.714M384.857 18.2275H350M419.714 18.2275H454.572M419.714 18.2275L419.416 17.5474L419.268 17.2095L419.121 16.873L418.683 15.8721L418.537 15.5414M828.023 295.528H923.627M828.023 295.528L806.52 275.897M828.023 295.528H732.419M828.023 295.528L851.652 317.1M923.627 295.528L897.824 275.897M923.627 295.528L951.981 317.1M923.627 295.528H1019.23M806.52 275.897H897.824M806.52 275.897H715.216M806.52 275.897L786.869 257.956M897.824 275.897L874.242 257.956M897.824 275.897H989.128M752.239 226.34H832.687M752.239 226.34L736.904 212.34M752.239 226.34H671.791M752.239 226.34L768.839 241.495M832.687 226.34L814.285 212.34M832.687 226.34L852.607 241.495M832.687 226.34H913.134M736.904 212.34H814.285M736.904 212.34H659.523M736.904 212.34L722.696 199.368M814.285 212.34L797.235 199.368M814.285 212.34H891.666M697.196 176.088H766.635M697.196 176.088L685.71 165.602M697.196 176.088H627.756M697.196 176.088L709.494 187.315M766.635 176.088L752.853 165.602M766.635 176.088L781.393 187.315M766.635 176.088H836.074M685.71 165.602H752.853M685.71 165.602H618.568M685.71 165.602L674.961 155.789M752.853 165.602L739.954 155.789M752.853 165.602H819.995M655.404 137.933H716.484M655.404 137.933L646.482 129.788M655.404 137.933H594.323M655.404 137.933L664.879 146.584M716.484 137.933L705.778 129.788M716.484 137.933L727.855 146.584M716.484 137.933H777.565M646.482 129.788H705.778M646.482 129.788H587.185M646.482 129.788L638.066 122.105M705.778 129.788L695.679 122.105M705.778 129.788H765.074M622.591 107.977H677.11M622.591 107.977L615.461 101.467M622.591 107.977H568.073M622.591 107.977L630.115 114.846M677.11 107.977L668.554 101.467M677.11 107.977L686.139 114.846M677.11 107.977H731.629M615.461 101.467H668.554M615.461 101.467H562.369M615.461 101.467L608.695 95.2897M668.554 101.467L660.434 95.2897M668.554 101.467H721.646M596.146 83.8332H645.375M596.146 83.8332L590.318 78.512M596.146 83.8332H546.917M596.146 83.8332L602.265 89.4193M645.375 83.8332L638.381 78.512M645.375 83.8332L652.718 89.4193M645.375 83.8332H694.604M590.318 78.512H638.381M590.318 78.512H542.254M590.318 78.512L584.759 73.437M638.381 78.512L631.71 73.437M638.381 78.512H686.444M574.378 63.9599L575 64.5277L575.626 65.0984L579.451 68.5914M574.378 63.9599H619.254M574.378 63.9599L569.525 59.5291M574.378 63.9599H529.503M619.254 63.9599L613.43 59.5291M619.254 63.9599L625.341 68.5914M619.254 63.9599H664.13M569.525 59.5291H613.43M569.525 59.5291H525.62M569.525 59.5291L564.877 55.2857M613.43 59.5291L607.852 55.2857M613.43 59.5291H657.335M556.147 47.3161H597.377M556.147 47.3161L552.043 43.5693M556.147 47.3161H514.918M556.147 47.3161L560.421 51.2182M597.377 47.3161L594.275 44.9569L592.452 43.5693M597.377 47.3161L602.506 51.2182M597.377 47.3161H638.607M552.043 43.5693H592.452M552.043 43.5693H511.635M552.043 43.5693L548.585 40.4109L548.1 39.9688M592.452 43.5693L587.72 39.9688M592.452 43.5693H632.861M540.657 33.1736H578.788M540.657 33.1736L539.766 32.3596L537.141 29.964M540.657 33.1736H502.526M540.657 33.1736L541.556 33.9947L543.382 35.6609L544.307 36.5059M578.788 33.1736L574.569 29.964M578.788 33.1736L580.411 34.4086L581.506 35.2417L583.168 36.5059M578.788 33.1736H616.919M537.141 29.964H574.569M537.141 29.964H499.712M537.141 29.964L534.588 27.633L533.752 26.8706M574.569 29.964L573.027 28.7906L572.01 28.0172L570.503 26.8706M574.569 29.964H611.997M527.331 21.0079H562.798M527.331 21.0079L525.415 19.259L524.286 18.2275M527.331 21.0079H491.865M527.331 21.0079L530.485 23.8871M562.798 21.0079L560.044 18.9139L559.593 18.5698L559.143 18.2275M562.798 21.0079L564.673 22.4346L566.582 23.8871M562.798 21.0079H598.263M524.286 18.2275H559.143M524.286 18.2275L522.802 16.873L522.07 16.2043L521.706 15.8721L521.344 15.5414M524.286 18.2275H489.429M559.143 18.2275H594M559.143 18.2275L555.612 15.5414M1046.43 212.34H969.047M1046.43 212.34L1020.85 199.368M1046.43 212.34H1069.61M1046.43 212.34L1069.61 224.1M974.952 176.088H1044.39M974.952 176.088L954.28 165.602M974.952 176.088H905.513M974.952 176.088L997.089 187.315M1044.39 176.088L1021.42 165.602M1044.39 176.088L1068.99 187.315M1044.39 176.088H1069.61M954.28 165.602H1021.42M954.28 165.602H887.138M954.28 165.602L934.93 155.789M1021.42 165.602L999.923 155.789M1021.42 165.602H1069.61M899.726 137.933H960.807M899.726 137.933L883.667 129.788M899.726 137.933H838.645M899.726 137.933L916.783 146.584M960.807 137.933L942.964 129.788M960.807 137.933L979.758 146.584M960.807 137.933H1021.89M883.667 129.788H942.964M883.667 129.788H824.371M883.667 129.788L868.519 122.105M942.964 129.788L926.132 122.105M942.964 129.788H1002.26M840.665 107.977H895.183M840.665 107.977L827.831 101.467M840.665 107.977H786.147M840.665 107.977L854.208 114.846M895.183 107.977L880.923 101.467M895.183 107.977L910.231 114.846M895.183 107.977H949.702M827.831 101.467H880.923M827.831 101.467H774.739M827.831 101.467L815.651 95.2897M880.923 101.467L867.389 95.2897M880.923 101.467H934.015M793.063 83.8332H842.292M793.063 83.8332L782.572 78.512M793.063 83.8332H743.834M793.063 83.8332L804.076 89.4193M842.292 83.8332L830.635 78.512M842.292 83.8332L854.529 89.4193M842.292 83.8332H891.521M782.572 78.512H830.635M782.572 78.512H734.508M782.572 78.512L772.565 73.437M830.635 78.512L819.517 73.437M830.635 78.512H878.699M753.881 63.9599H798.756M753.881 63.9599L745.144 59.5291M753.881 63.9599H709.005M753.881 63.9599L763.012 68.5914M798.756 63.9599L789.049 59.5291M798.756 63.9599L808.902 68.5914M798.756 63.9599H843.632M745.144 59.5291H789.049M745.144 59.5291H701.24M745.144 59.5291L736.778 55.2857M789.049 59.5291L779.753 55.2857M789.049 59.5291H832.954M721.065 47.3161H762.294M721.065 47.3161L713.678 43.5693M721.065 47.3161H679.836M721.065 47.3161L728.759 51.2182M762.294 47.3161L754.087 43.5693M762.294 47.3161L770.844 51.2182M762.294 47.3161H803.525M713.678 43.5693H754.087M713.678 43.5693H673.269M713.678 43.5693L706.579 39.9688M754.087 43.5693L746.199 39.9688M754.087 43.5693H794.496M693.182 33.1736H731.313M693.182 33.1736L686.854 29.964M693.182 33.1736H655.051M693.182 33.1736L694.802 33.9947L695.616 34.4086L699.753 36.5059M731.313 33.1736L724.282 29.964M731.313 33.1736L738.614 36.5059M731.313 33.1736H769.444M686.854 29.964H724.282M686.854 29.964H649.426M686.854 29.964L680.755 26.8706M724.282 29.964L717.505 26.8706M724.282 29.964H761.71M669.196 21.0079H704.662M669.196 21.0079L663.714 18.2275M669.196 21.0079H633.73M669.196 21.0079L674.873 23.8871M704.662 21.0079L700.074 18.9139L699.322 18.5698L698.571 18.2275M704.662 21.0079L710.97 23.8871M704.662 21.0079H740.128M663.714 18.2275H698.571M663.714 18.2275L659.071 15.8721L658.418 15.5414M663.714 18.2275H628.857M698.571 18.2275H733.429M698.571 18.2275L692.687 15.5414M1058.74 107.977L1040.2 101.467M1058.74 107.977H1004.22M1058.74 107.977L1069.61 111.795M1058.74 107.977H1069.61M1040.2 101.467H987.107M1040.2 101.467L1022.61 95.2897M1040.2 101.467H1069.61M989.98 83.8332H1039.21M989.98 83.8332L974.825 78.512M989.98 83.8332H940.751M989.98 83.8332L1005.89 89.4193M1039.21 83.8332L1022.89 78.512M1039.21 83.8332L1056.34 89.4193M1039.21 83.8332H1069.61M974.825 78.512H1022.89M974.825 78.512H926.762M974.825 78.512L960.372 73.437M1022.89 78.512L1007.32 73.437M1022.89 78.512H1069.61M933.383 63.9599H978.259M933.383 63.9599L920.764 59.5291M933.383 63.9599H888.508M933.383 63.9599L946.573 68.5914M978.259 63.9599L964.669 59.5291M978.259 63.9599L992.463 68.5914M978.259 63.9599H1023.13M920.764 59.5291H964.669M920.764 59.5291H876.859M920.764 59.5291L908.679 55.2857M964.669 59.5291L951.655 55.2857M964.669 59.5291H1008.57M885.983 47.3161H927.212M885.983 47.3161L875.313 43.5693M885.983 47.3161H844.754M885.983 47.3161L897.096 51.2182M927.212 47.3161L915.722 43.5693M927.212 47.3161L939.18 51.2182M927.212 47.3161H968.443M875.313 43.5693H915.722M875.313 43.5693H834.904M875.313 43.5693L865.059 39.9688M915.722 43.5693L904.679 39.9688M915.722 43.5693H956.13M845.707 33.1736H883.839M845.707 33.1736L836.567 29.964M845.707 33.1736H807.576M845.707 33.1736L855.198 36.5059M883.839 33.1736L873.995 29.964M883.839 33.1736L894.059 36.5059M883.839 33.1736H921.97M836.567 29.964H873.995M836.567 29.964H799.138M836.567 29.964L827.757 26.8706M873.995 29.964L864.507 26.8706M873.995 29.964H911.423M811.061 21.0079H846.527M811.061 21.0079L803.143 18.2275M811.061 21.0079H775.595M811.061 21.0079L819.26 23.8871M846.527 21.0079L838 18.2275M846.527 21.0079L855.358 23.8871M846.527 21.0079H881.994M803.143 18.2275H838M803.143 18.2275L795.493 15.5414M803.143 18.2275H768.286M838 18.2275H872.858M838 18.2275L829.761 15.5414M1050.9 47.3161L1036.95 43.5693M1050.9 47.3161H1009.67M1050.9 47.3161L1065.43 51.2182M1050.9 47.3161H1069.61M1036.95 43.5693H996.539M1036.95 43.5693L1023.54 39.9688M1036.95 43.5693H1069.61M998.232 33.1736H1036.36M998.232 33.1736L986.279 29.964M998.232 33.1736H960.101M998.232 33.1736L1010.64 36.5059M1036.36 33.1736L1023.71 29.964M1036.36 33.1736L1049.5 36.5059M1036.36 33.1736H1069.61M986.279 29.964H1023.71M986.279 29.964H948.851M986.279 29.964L974.759 26.8706M1023.71 29.964L1011.51 26.8706M1023.71 29.964H1061.14M952.926 21.0079H988.392M952.926 21.0079L942.572 18.2275M952.926 21.0079H917.459M952.926 21.0079L963.648 23.8871M988.392 21.0079L977.429 18.2275M988.392 21.0079L999.745 23.8871M988.392 21.0079H1023.86M942.572 18.2275H977.429M942.572 18.2275L932.568 15.5414M942.572 18.2275H907.715M977.429 18.2275H1012.29M977.429 18.2275L966.836 15.5414M999.745 23.8871L1011.51 26.8706M999.745 23.8871H1035.84M999.745 23.8871H963.648M1023.86 21.0079L1012.29 18.2275M1023.86 21.0079L1035.84 23.8871M1023.86 21.0079H1059.32M1012.29 18.2275H1047.14M1012.29 18.2275L1001.1 15.5414M966.836 15.5414H932.568M966.836 15.5414H1001.1M966.836 15.5414L956.595 12.9441M1035.84 23.8871L1048.26 26.8706M1035.84 23.8871H1069.61M1059.32 21.0079L1047.14 18.2275M1059.32 21.0079L1069.61 23.3559M1059.32 21.0079H1069.61M1047.14 18.2275L1035.37 15.5414M1047.14 18.2275H1069.61M1001.1 15.5414H1035.37M1001.1 15.5414L990.295 12.9441M1035.37 15.5414L1023.99 12.9441M1035.37 15.5414H1069.61M1011.51 26.8706H1048.26M1011.51 26.8706H974.759M1061.14 29.964L1048.26 26.8706M1061.14 29.964L1069.61 32.0002M1061.14 29.964H1069.61M1048.26 26.8706H1069.61M974.759 26.8706H938.008M974.759 26.8706L963.648 23.8871M963.648 23.8871H927.551M1049.5 36.5059L1063.16 39.9688M1049.5 36.5059H1010.64M1049.5 36.5059H1069.61M1069.73 33.1736H1069.61M1063.16 39.9688H1023.54M1063.16 39.9688L1069.61 41.6054M1063.16 39.9688H1069.61M1023.54 39.9688H983.919M1023.54 39.9688L1010.64 36.5059M1010.64 36.5059H971.782M855.358 23.8871L864.507 26.8706M855.358 23.8871H891.454M855.358 23.8871H819.26M881.994 21.0079L872.858 18.2275M881.994 21.0079L891.454 23.8871M881.994 21.0079H917.459M872.858 18.2275H907.715M872.858 18.2275L864.03 15.5414M829.761 15.5414H864.03M829.761 15.5414L821.796 12.9441M829.761 15.5414H795.493M891.454 23.8871L901.258 26.8706M891.454 23.8871H927.551M917.459 21.0079L907.715 18.2275M917.459 21.0079L927.551 23.8871M907.715 18.2275L898.299 15.5414M864.03 15.5414H898.299M864.03 15.5414L855.496 12.9441M927.551 23.8871L938.008 26.8706M932.568 15.5414H898.299M932.568 15.5414L922.895 12.9441M898.299 15.5414L889.195 12.9441M864.507 26.8706H901.258M864.507 26.8706H827.757M911.423 29.964L901.258 26.8706M911.423 29.964L921.97 33.1736M911.423 29.964H948.851M901.258 26.8706H938.008M827.757 26.8706H791.006M827.757 26.8706L819.26 23.8871M938.008 26.8706L948.851 29.964M819.26 23.8871H783.163M921.97 33.1736L932.921 36.5059M921.97 33.1736H960.101M948.851 29.964L960.101 33.1736M960.101 33.1736L971.782 36.5059M894.059 36.5059L904.679 39.9688M894.059 36.5059H932.921M894.059 36.5059H855.198M932.921 36.5059L944.299 39.9688M932.921 36.5059H971.782M971.782 36.5059L983.919 39.9688M904.679 39.9688H944.299M904.679 39.9688H865.059M956.13 43.5693L944.299 39.9688M956.13 43.5693L968.443 47.3161M956.13 43.5693H996.539M944.299 39.9688H983.919M865.059 39.9688H825.439M865.059 39.9688L855.198 36.5059M983.919 39.9688L996.539 43.5693M855.198 36.5059H816.337M968.443 47.3161L981.265 51.2182M968.443 47.3161H1009.67M996.539 43.5693L1009.67 47.3161M1009.67 47.3161L1023.35 51.2182M939.18 51.2182L951.655 55.2857M939.18 51.2182H981.265M939.18 51.2182H897.096M981.265 51.2182L994.63 55.2857M981.265 51.2182H1023.35M1023.35 51.2182L1037.61 55.2857M1023.35 51.2182H1065.43M1065.43 51.2182H1069.61M1065.43 51.2182L1069.61 52.3402M951.655 55.2857H994.63M951.655 55.2857H908.679M1008.57 59.5291L994.63 55.2857M1008.57 59.5291L1023.13 63.9599M1008.57 59.5291H1052.48M994.63 55.2857H1037.61M908.679 55.2857H865.704M908.679 55.2857L897.096 51.2182M1037.61 55.2857L1052.48 59.5291M1037.61 55.2857H1069.61M897.096 51.2182H855.012M1023.13 63.9599L1038.35 68.5914M1023.13 63.9599H1068.01M1052.48 59.5291L1068.01 63.9599M1052.48 59.5291H1069.61M1069.84 55.2857H1069.61M1068.01 63.9599L1069.61 64.4171M1068.01 63.9599H1069.61M992.463 68.5914L1007.32 73.437M992.463 68.5914H1038.35M992.463 68.5914H946.573M1038.35 68.5914L1054.28 73.437M1038.35 68.5914H1069.61M1070 64.5277L1069.61 64.4171M1007.32 73.437H1054.28M1007.32 73.437H960.372M1054.28 73.437H1069.61M1054.28 73.437L1069.61 78.1042M960.372 73.437H913.421M960.372 73.437L946.573 68.5914M946.573 68.5914H900.683M1056.34 89.4193H1005.89M1056.34 89.4193L1069.61 93.7464M1056.34 89.4193H1069.61M1069.98 83.8332H1069.61M1005.89 89.4193H955.435M1005.89 89.4193L1022.61 95.2897M1069.76 93.7941L1069.61 93.7464M710.97 23.8871L717.505 26.8706M710.97 23.8871H747.066M710.97 23.8871H674.873M740.128 21.0079L733.429 18.2275M740.128 21.0079L747.066 23.8871M740.128 21.0079H775.595M733.429 18.2275H768.286M733.429 18.2275L726.956 15.5414M692.687 15.5414H726.956M692.687 15.5414L690.53 14.5572L686.997 12.9441M692.687 15.5414H658.418M747.066 23.8871L754.256 26.8706M747.066 23.8871H783.163M775.595 21.0079L768.286 18.2275M775.595 21.0079L783.163 23.8871M768.286 18.2275L761.224 15.5414M726.956 15.5414H761.224M726.956 15.5414L720.697 12.9441M783.163 23.8871L791.006 26.8706M795.493 15.5414L788.096 12.9441M795.493 15.5414H761.224M761.224 15.5414L760.358 15.2116L758.636 14.5572L754.397 12.9441M717.505 26.8706H754.256M717.505 26.8706H680.755M761.71 29.964L754.256 26.8706M761.71 29.964L769.444 33.1736M761.71 29.964H799.138M754.256 26.8706H791.006M680.755 26.8706H644.004M680.755 26.8706L674.873 23.8871M791.006 26.8706L799.138 29.964M674.873 23.8871H638.775M769.444 33.1736L777.475 36.5059M769.444 33.1736H807.576M799.138 29.964L800.176 30.3583L807.576 33.1736M807.576 33.1736L816.337 36.5059M738.614 36.5059L739.546 36.9318L746.199 39.9688M738.614 36.5059H777.475M738.614 36.5059H699.753M777.475 36.5059L785.819 39.9688M777.475 36.5059H816.337M816.337 36.5059L825.439 39.9688M746.199 39.9688H785.819M746.199 39.9688H706.579M794.496 43.5693L785.819 39.9688M794.496 43.5693L803.525 47.3161M794.496 43.5693H834.904M785.819 39.9688H825.439M706.579 39.9688H666.959M706.579 39.9688L699.753 36.5059M825.439 39.9688L834.904 43.5693M699.753 36.5059H660.891M803.525 47.3161L812.927 51.2182M803.525 47.3161H844.754M834.904 43.5693L844.754 47.3161M844.754 47.3161L855.012 51.2182M770.844 51.2182L779.753 55.2857M770.844 51.2182H812.927M770.844 51.2182H728.759M812.927 51.2182L822.729 55.2857M812.927 51.2182H855.012M855.012 51.2182L865.704 55.2857M779.753 55.2857H822.729M779.753 55.2857H736.778M832.954 59.5291L822.729 55.2857M832.954 59.5291L843.632 63.9599M832.954 59.5291H876.859M822.729 55.2857H865.704M736.778 55.2857H693.803M736.778 55.2857L728.759 51.2182M865.704 55.2857L876.859 59.5291M728.759 51.2182H686.674M843.632 63.9599L854.792 68.5914M843.632 63.9599H888.508M876.859 59.5291L888.508 63.9599M888.508 63.9599L900.683 68.5914M808.902 68.5914L819.517 73.437M808.902 68.5914H854.792M808.902 68.5914H763.012M854.792 68.5914L866.469 73.437M854.792 68.5914H900.683M900.683 68.5914L913.421 73.437M819.517 73.437H866.469M819.517 73.437H772.565M878.699 78.512L866.469 73.437M878.699 78.512L891.521 83.8332M878.699 78.512H926.762M866.469 73.437H913.421M772.565 73.437H725.614M772.565 73.437L763.012 68.5914M913.421 73.437L926.762 78.512M763.012 68.5914H717.122M891.521 83.8332L904.982 89.4193M891.521 83.8332H940.751M926.762 78.512L940.751 83.8332M940.751 83.8332L955.435 89.4193M854.529 89.4193L867.389 95.2897M854.529 89.4193H904.982M854.529 89.4193H804.076M904.982 89.4193L919.129 95.2897M904.982 89.4193H955.435M955.435 89.4193L970.867 95.2897M867.389 95.2897H919.129M867.389 95.2897H815.651M934.015 101.467L919.129 95.2897M934.015 101.467L949.702 107.977M934.015 101.467H987.107M919.129 95.2897H970.867M815.651 95.2897H763.911M815.651 95.2897L804.076 89.4193M970.867 95.2897L987.107 101.467M970.867 95.2897H1022.61M804.076 89.4193H753.623M949.702 107.977L966.254 114.846M949.702 107.977H1004.22M987.107 101.467L1004.22 107.977M1022.61 95.2897H1069.61M1004.22 107.977L1022.28 114.846M910.231 114.846L926.132 122.105M910.231 114.846H966.254M910.231 114.846H854.208M966.254 114.846L983.745 122.105M966.254 114.846H1022.28M1022.28 114.846L1041.36 122.105M1022.28 114.846H1069.61M926.132 122.105H983.745M926.132 122.105H868.519M1002.26 129.788L983.745 122.105M1002.26 129.788L1021.89 137.933M1002.26 129.788H1061.56M983.745 122.105H1041.36M868.519 122.105H810.906M868.519 122.105L854.208 114.846M1041.36 122.105L1061.56 129.788M1041.36 122.105H1069.61M854.208 114.846H798.184M1021.89 137.933L1042.73 146.584M1021.89 137.933H1069.61M1061.56 129.788H1069.61M1061.56 129.788L1069.61 132.852M979.758 146.584L999.923 155.789M979.758 146.584H1042.73M979.758 146.584H916.783M1042.73 146.584L1064.91 155.789M1042.73 146.584H1069.61M999.923 155.789H1064.91M999.923 155.789H934.93M1064.91 155.789L1069.61 157.738M1064.91 155.789H1069.61M934.93 155.789H869.938M934.93 155.789L916.783 146.584M916.783 146.584H853.807M1068.99 187.315H997.089M1068.99 187.315H1069.61M1068.99 187.315L1069.61 187.601M997.089 187.315H925.191M997.089 187.315L1020.85 199.368M566.582 23.8871L568.036 24.9931L568.525 25.3655L570.503 26.8706M566.582 23.8871H602.679M566.582 23.8871H530.485M598.263 21.0079L595.052 18.9139L594 18.2275M598.263 21.0079L602.119 23.5215L602.679 23.8871M598.263 21.0079H633.73M594 18.2275H628.857M594 18.2275L589.881 15.5414M555.612 15.5414H589.881M555.612 15.5414L554.318 14.5572L552.198 12.9441M555.612 15.5414H521.344M602.679 23.8871L603.807 24.6227L607.254 26.8706M602.679 23.8871H638.775M633.73 21.0079L628.857 18.2275M633.73 21.0079L638.775 23.8871M628.857 18.2275L625.311 16.2043L624.149 15.5414M589.881 15.5414H624.149M589.881 15.5414L585.898 12.9441M638.775 23.8871L644.004 26.8706M658.418 15.5414L657.769 15.2116L653.297 12.9441M658.418 15.5414H624.149M624.149 15.5414L622.424 14.5572L619.598 12.9441M570.503 26.8706H607.254M570.503 26.8706H533.752M611.997 29.964L607.254 26.8706M611.997 29.964L616.919 33.1736M611.997 29.964H649.426M607.254 26.8706H644.004M533.752 26.8706H497.002M533.752 26.8706L530.485 23.8871M644.004 26.8706L649.426 29.964M530.485 23.8871H494.388M616.919 33.1736L620.09 35.2417L620.734 35.6609L622.029 36.5059M616.919 33.1736H655.051M649.426 29.964L655.051 33.1736M655.051 33.1736L660.891 36.5059M583.168 36.5059L587.72 39.9688M583.168 36.5059H622.029M583.168 36.5059H544.307M622.029 36.5059L627.339 39.9688M622.029 36.5059H660.891M660.891 36.5059L666.959 39.9688M587.72 39.9688H627.339M587.72 39.9688H548.1M632.861 43.5693L629.384 41.3023L628.7 40.8554L627.339 39.9688M632.861 43.5693L638.607 47.3161M632.861 43.5693H673.269M627.339 39.9688H666.959M548.1 39.9688H508.48M548.1 39.9688L544.307 36.5059M666.959 39.9688L673.269 43.5693M544.307 36.5059H505.445M638.607 47.3161L644.591 51.2182M638.607 47.3161H679.836M673.269 43.5693L679.836 47.3161M679.836 47.3161L686.674 51.2182M602.506 51.2182L605.151 53.2305L605.821 53.7405L607.852 55.2857M602.506 51.2182H644.591M602.506 51.2182H560.421M644.591 51.2182L650.827 55.2857M644.591 51.2182H686.674M686.674 51.2182L693.803 55.2857M607.852 55.2857H650.827M607.852 55.2857H564.877M657.335 59.5291L650.827 55.2857M657.335 59.5291L664.13 63.9599M657.335 59.5291H701.24M650.827 55.2857H693.803M564.877 55.2857H521.901M564.877 55.2857L563.745 54.2528L560.421 51.2182M693.803 55.2857L701.24 59.5291M560.421 51.2182H518.338M664.13 63.9599L671.231 68.5914M664.13 63.9599H709.005M701.24 59.5291L709.005 63.9599M709.005 63.9599L717.122 68.5914M625.341 68.5914L631.71 73.437M625.341 68.5914H671.231M625.341 68.5914H579.451M671.231 68.5914L678.662 73.437M671.231 68.5914H717.122M717.122 68.5914L725.614 73.437M631.71 73.437H678.662M631.71 73.437H584.759M686.444 78.512L678.662 73.437M686.444 78.512L694.604 83.8332M686.444 78.512H734.508M678.662 73.437H725.614M584.759 73.437H537.807M584.759 73.437L579.451 68.5914M725.614 73.437L734.508 78.512M579.451 68.5914H533.561M694.604 83.8332L703.17 89.4193M694.604 83.8332H743.834M734.508 78.512L743.834 83.8332M743.834 83.8332L753.623 89.4193M652.718 89.4193L660.434 95.2897M652.718 89.4193H703.17M652.718 89.4193H602.265M703.17 89.4193L712.173 95.2897M703.17 89.4193H753.623M753.623 89.4193L763.911 95.2897M660.434 95.2897H712.173M660.434 95.2897H608.695M721.646 101.467L712.173 95.2897M721.646 101.467L731.629 107.977M721.646 101.467H774.739M712.173 95.2897H763.911M608.695 95.2897H556.956M608.695 95.2897L602.265 89.4193M763.911 95.2897L774.739 101.467M602.265 89.4193H551.812M731.629 107.977L742.162 114.846M731.629 107.977H786.147M774.739 101.467L786.147 107.977M786.147 107.977L798.184 114.846M686.139 114.846L695.679 122.105M686.139 114.846H742.162M686.139 114.846H630.115M742.162 114.846L753.293 122.105M742.162 114.846H798.184M798.184 114.846L810.906 122.105M695.679 122.105H753.293M695.679 122.105H638.066M765.074 129.788L753.293 122.105M765.074 129.788L777.565 137.933M765.074 129.788H824.371M753.293 122.105H810.906M638.066 122.105H580.453M638.066 122.105L630.115 114.846M810.906 122.105L824.371 129.788M630.115 114.846H574.093M777.565 137.933L790.831 146.584M777.565 137.933H838.645M824.371 129.788L838.645 137.933M838.645 137.933L853.807 146.584M727.855 146.584L739.954 155.789M727.855 146.584H790.831M727.855 146.584H664.879M790.831 146.584L804.946 155.789M790.831 146.584H853.807M853.807 146.584L869.938 155.789M739.954 155.789H804.946M739.954 155.789H674.961M819.995 165.602L804.946 155.789M819.995 165.602L836.074 176.088M819.995 165.602H887.138M804.946 155.789H869.938M674.961 155.789H609.969M674.961 155.789L664.879 146.584M869.938 155.789L887.138 165.602M664.879 146.584H601.903M836.074 176.088L853.292 187.315M836.074 176.088H905.513M887.138 165.602L905.513 176.088M905.513 176.088L925.191 187.315M781.393 187.315L797.235 199.368M781.393 187.315H853.292M781.393 187.315H709.494M853.292 187.315L871.774 199.368M853.292 187.315H925.191M925.191 187.315L946.314 199.368M797.235 199.368H871.774M797.235 199.368H722.696M891.666 212.34L871.774 199.368M891.666 212.34L913.134 226.34M891.666 212.34H969.047M871.774 199.368H946.314M722.696 199.368H648.156M722.696 199.368L709.494 187.315M946.314 199.368L969.047 212.34M946.314 199.368H1020.85M709.494 187.315H637.595M913.134 226.34L936.375 241.495M913.134 226.34H993.582M969.047 212.34L993.582 226.34M1020.85 199.368H1069.61M993.582 226.34L1020.14 241.495M993.582 226.34H1069.61M852.607 241.495L874.242 257.956M852.607 241.495H936.375M852.607 241.495H768.839M936.375 241.495L961.616 257.956M936.375 241.495H1020.14M1020.14 241.495L1048.99 257.956M1020.14 241.495H1069.61M874.242 257.956H961.616M874.242 257.956H786.869M989.128 275.897L961.616 257.956M989.128 275.897L1019.23 295.528M989.128 275.897H1069.61M961.616 257.956H1048.99M786.869 257.956H699.495M786.869 257.956L768.839 241.495M1048.99 257.956H1069.61M1048.99 257.956L1069.61 269.723M768.839 241.495H685.071M1019.23 295.528L1052.31 317.1M1019.23 295.528H1069.61M951.981 317.1L983.284 340.915M951.981 317.1H1052.31M951.981 317.1H851.652M1052.31 317.1L1069.61 328.382M1052.31 317.1H1069.61M983.284 340.915H877.737M983.284 340.915L1069.61 340.915M877.737 340.915H772.19M877.737 340.915L851.652 317.1M851.652 317.1H751.321M422.194 23.8871L422.355 24.2542L422.516 24.6227L422.679 24.9931L422.841 25.3655L423.335 26.4916L423.501 26.8706M422.194 23.8871H458.291M422.194 23.8871H386.097M456.399 21.0079L455.022 18.9139L454.572 18.2275M456.399 21.0079L457.574 22.7955L458.291 23.8871M456.399 21.0079H491.865M454.572 18.2275H489.429M454.572 18.2275L453.242 16.2043L452.806 15.5414M418.537 15.5414L418.393 15.2116L417.822 13.9077L417.399 12.9441M418.537 15.5414H452.806M418.537 15.5414H384.269M458.291 23.8871L458.532 24.2542L458.775 24.6227L459.018 24.9931L459.263 25.3655L460.251 26.8706M458.291 23.8871H494.388M491.865 21.0079L490.03 18.9139L489.429 18.2275M491.865 21.0079L494.388 23.8871M489.429 18.2275L488.241 16.873L487.364 15.8721L487.075 15.5414M452.806 15.5414L452.59 15.2116L452.16 14.5572L451.732 13.9077L451.521 13.585L451.099 12.9441M452.806 15.5414H487.075M494.388 23.8871L496.34 26.1145L497.002 26.8706M521.344 15.5414L519.201 13.585L518.499 12.9441M521.344 15.5414H487.075M487.075 15.5414L485.08 13.2638L484.798 12.9441M423.501 26.8706H460.251M423.501 26.8706H386.751M462.284 29.964L460.251 26.8706M462.284 29.964L464.394 33.1736M462.284 29.964H499.712M460.251 26.8706H497.002M386.751 26.8706H350M386.751 26.8706L386.097 23.8871M497.002 26.8706L499.712 29.964M386.097 23.8871H350M464.394 33.1736L464.934 33.9947L465.753 35.2417L466.584 36.5059M464.394 33.1736H502.526M499.712 29.964L500.059 30.3583L502.526 33.1736M502.526 33.1736L502.884 33.5832L503.245 33.9947L503.607 34.4086L505.445 36.5059M427.723 36.5059L429.24 39.9688M427.723 36.5059H466.584M427.723 36.5059H388.861M466.584 36.5059L468.86 39.9688M466.584 36.5059H505.445M505.445 36.5059L507.71 39.0903L508.094 39.5286L508.48 39.9688M429.24 39.9688H468.86M429.24 39.9688H389.62M471.226 43.5693L471.528 44.0296L471.833 44.4918L472.138 44.9569L473.689 47.3161M471.226 43.5693L470.031 41.7511L469.736 41.3023L469.443 40.8554L468.86 39.9688M471.226 43.5693H511.635M468.86 39.9688H508.48M389.62 39.9688H350M389.62 39.9688L388.861 36.5059M508.48 39.9688L511.635 43.5693M388.861 36.5059H350M473.689 47.3161L475.927 50.7216L476.253 51.2182M473.689 47.3161H514.918M511.635 43.5693L512.444 44.4918L514.918 47.3161M514.918 47.3161L516.184 48.7605L518.338 51.2182M434.168 51.2182L435.051 53.2305L435.273 53.7405L435.951 55.2857M434.168 51.2182H476.253M434.168 51.2182H392.085M476.253 51.2182L478.926 55.2857M476.253 51.2182H518.338M518.338 51.2182L521.901 55.2857M435.951 55.2857H478.926M435.951 55.2857H392.975M481.715 59.5291L478.926 55.2857M481.715 59.5291L484.627 63.9599M481.715 59.5291H525.62M478.926 55.2857H521.901M392.975 55.2857H350M392.975 55.2857L392.749 54.2528L392.304 52.2191L392.085 51.2182M521.901 55.2857L525.62 59.5291M392.085 51.2182H350M484.627 63.9599L486.897 67.4142L487.671 68.5914M484.627 63.9599H529.503M525.62 59.5291L529.503 63.9599M529.503 63.9599L531.509 66.2498L533.561 68.5914M441.781 68.5914L443.903 73.437M441.781 68.5914H487.671M441.781 68.5914H395.89M487.671 68.5914L490.855 73.437M487.671 68.5914H533.561M533.561 68.5914L537.807 73.437M443.903 73.437H490.855M443.903 73.437H396.952M494.191 78.512L493.342 77.2211L490.855 73.437M494.191 78.512L497.688 83.8332M494.191 78.512H542.254M490.855 73.437H537.807M396.952 73.437H350M396.952 73.437L395.89 68.5914M537.807 73.437L542.254 78.512M395.89 68.5914H350M497.688 83.8332L501.359 89.4193M497.688 83.8332H546.917M542.254 78.512L546.917 83.8332M546.917 83.8332L551.812 89.4193M450.906 89.4193L453.478 95.2897M450.906 89.4193H501.359M450.906 89.4193H400.453M501.359 89.4193L505.217 95.2897M501.359 89.4193H551.812M551.812 89.4193L556.956 95.2897M453.478 95.2897H505.217M453.478 95.2897H401.739M509.277 101.467L505.217 95.2897M509.277 101.467L513.555 107.977M509.277 101.467H562.369M505.217 95.2897H556.956M401.739 95.2897H350M401.739 95.2897L400.61 90.1372L400.453 89.4193M556.956 95.2897L562.369 101.467M400.453 89.4193H350M513.555 107.977L518.069 114.846M513.555 107.977H568.073M562.369 101.467L566.618 106.317L568.073 107.977M568.073 107.977L574.093 114.846M462.046 114.846L465.226 122.105M462.046 114.846H518.069M462.046 114.846H406.023M518.069 114.846L522.84 122.105M518.069 114.846H574.093M574.093 114.846L580.453 122.105M465.226 122.105H522.84M465.226 122.105H407.613M527.889 129.788L522.84 122.105M527.889 129.788L533.242 137.933M527.889 129.788H587.185M522.84 122.105H580.453M407.613 122.105H350M407.613 122.105L406.023 114.846M580.453 122.105L587.185 129.788M406.023 114.846H350M533.242 137.933L538.927 146.584M533.242 137.933H594.323M587.185 129.788L594.323 137.933M594.323 137.933L601.903 146.584M475.952 146.584L479.985 155.789M475.952 146.584H538.927M475.952 146.584H412.976M538.927 146.584L544.977 155.789M538.927 146.584H601.903M601.903 146.584L609.969 155.789M479.985 155.789H544.977M479.985 155.789H414.992M551.426 165.602L544.977 155.789M551.426 165.602L558.317 176.088M551.426 165.602H618.568M544.977 155.789H609.969M414.992 155.789H350M414.992 155.789L412.976 146.584M609.969 155.789L618.568 165.602M412.976 146.584H350M558.317 176.088L565.696 187.315M558.317 176.088H627.756M618.568 165.602L627.756 176.088M627.756 176.088L637.595 187.315M493.797 187.315L499.078 199.368M493.797 187.315H565.696M493.797 187.315H421.899M565.696 187.315L573.617 199.368M565.696 187.315H637.595M637.595 187.315L648.156 199.368M499.078 199.368H573.617M499.078 199.368H424.539M582.142 212.34L573.617 199.368M582.142 212.34L591.343 226.34M582.142 212.34H659.523M573.617 199.368H648.156M424.539 199.368H350M424.539 199.368L421.899 187.315M648.156 199.368L659.523 212.34M421.899 187.315H350M591.343 226.34L601.304 241.495M591.343 226.34H671.791M659.523 212.34L671.791 226.34M671.791 226.34L685.071 241.495M517.536 241.495L524.747 257.956M517.536 241.495H601.304M517.536 241.495H433.768M601.304 241.495L612.121 257.956M601.304 241.495H685.071M685.071 241.495L699.495 257.956M524.747 257.956H612.121M524.747 257.956H437.374M623.912 275.897L612.121 257.956M623.912 275.897L636.814 295.528M623.912 275.897H715.216M612.121 257.956H699.495M437.374 257.956H350M437.374 257.956L433.768 241.495M699.495 257.956L715.216 275.897M433.768 241.495H350M636.814 295.528L650.991 317.1M636.814 295.528H732.419M715.216 275.897L732.419 295.528M732.419 295.528L751.321 317.1M550.66 317.1L561.095 340.915M550.66 317.1H650.991M550.66 317.1H450.33M650.991 317.1L666.642 340.915M650.991 317.1H751.321M751.321 317.1L772.19 340.915M666.642 340.915H561.095M666.642 340.915H772.19M561.095 340.915H455.548M455.548 340.915H350M455.548 340.915L450.33 317.1M450.33 317.1H350M277.806 23.8871L277.645 24.2542L277.484 24.6227L277.321 24.9931L277.159 25.3655L276.83 26.1145L276.665 26.4916L276.499 26.8706M277.806 23.8871H313.903M277.806 23.8871H241.709M314.534 21.0079L315.143 18.2275M314.534 21.0079L313.903 23.8871M314.534 21.0079H350M315.143 18.2275L315.217 17.8867L315.292 17.5474L315.366 17.2095L315.732 15.5414M315.143 18.2275H350M281.463 15.5414L281.607 15.2116L282.178 13.9077L282.601 12.9441M281.463 15.5414H315.732M281.463 15.5414H247.194M313.903 23.8871L313.822 24.2542L313.742 24.6227L313.66 24.9931L313.25 26.8706M313.903 23.8871H350M350 21.0079V18.2275M350 21.0079V23.8871M350 18.2275V15.5414M315.732 15.5414H350M315.732 15.5414L315.947 14.5572L316.019 14.2317L316.3 12.9441M350 23.8871V26.8706M384.269 15.5414L384.054 14.5572L383.982 14.2317L383.911 13.9077L383.84 13.585L383.77 13.2638L383.7 12.9441M384.269 15.5414H350M350 15.5414V12.9441M276.499 26.8706H313.25M276.499 26.8706H239.749M312.572 29.964L312.485 30.3583L312.399 30.755L311.869 33.1736M312.572 29.964L313.25 26.8706M312.572 29.964H350M313.25 26.8706H350M239.749 26.8706H202.998M239.749 26.8706L240.245 26.1145L240.492 25.7393L240.737 25.3655L240.983 24.9931L241.225 24.6227L241.468 24.2542L241.709 23.8871M350 26.8706V29.964M241.709 23.8871H205.612M311.869 33.1736L311.139 36.5059M311.869 33.1736H350M350 29.964V33.1736M350 33.1736V36.5059M272.277 36.5059L270.76 39.9688M272.277 36.5059H311.139M272.277 36.5059H233.416M311.139 36.5059L310.38 39.9688M311.139 36.5059H350M350 36.5059V39.9688M270.76 39.9688H310.38M270.76 39.9688H231.14M309.592 43.5693L310.38 39.9688M309.592 43.5693L308.771 47.3161M309.592 43.5693H350M310.38 39.9688H350M231.14 39.9688H191.52M231.14 39.9688L233.416 36.5059M350 39.9688V43.5693M233.416 36.5059H194.555M308.771 47.3161L308.454 48.7605L308.133 50.2274L307.915 51.2182M308.771 47.3161H350M350 43.5693V47.3161M350 47.3161V51.2182M265.832 51.2182L264.949 53.2305L264.727 53.7405L264.049 55.2857M265.832 51.2182H307.915M265.832 51.2182H223.747M307.915 51.2182L307.697 52.2191L307.251 54.2528L307.025 55.2857M307.915 51.2182H350M350 51.2182V55.2857M264.049 55.2857H307.025M264.049 55.2857H221.074M306.095 59.5291L306.213 58.9885L307.025 55.2857M306.095 59.5291L305.125 63.9599M306.095 59.5291H350M307.025 55.2857H350M221.074 55.2857H178.099M221.074 55.2857L223.747 51.2182M350 55.2857V59.5291M223.747 51.2182H181.662M305.125 63.9599L304.11 68.5914M305.125 63.9599H350M350 59.5291V63.9599M350 63.9599V68.5914M258.219 68.5914L256.097 73.437M258.219 68.5914H304.11M258.219 68.5914H212.329M304.11 68.5914L303.048 73.437M304.11 68.5914H350M350 68.5914V73.437M256.097 73.437H303.048M256.097 73.437H209.145M301.937 78.512L303.048 73.437M301.937 78.512L300.771 83.8332M301.937 78.512H350M303.048 73.437H350M209.145 73.437H162.193M209.145 73.437L212.329 68.5914M350 73.437V78.512M212.329 68.5914H166.439M300.771 83.8332L299.547 89.4193M300.771 83.8332H350M350 78.512V83.8332M350 83.8332V89.4193M249.094 89.4193L246.522 95.2897M249.094 89.4193H299.547M249.094 89.4193H198.642M299.547 89.4193L298.261 95.2897M299.547 89.4193H350M350 89.4193V95.2897M246.522 95.2897H298.261M246.522 95.2897H194.783M296.908 101.467L298.261 95.2897M296.908 101.467L295.482 107.977M296.908 101.467H350M298.261 95.2897H350M194.783 95.2897H143.044M194.783 95.2897L198.642 89.4193M350 95.2897V101.467M198.642 89.4193H148.188M295.482 107.977L293.977 114.846M295.482 107.977H350M350 101.467V107.977M350 107.977V114.846M237.954 114.846L234.774 122.105M237.954 114.846H293.977M237.954 114.846H181.931M293.977 114.846L292.387 122.105M293.977 114.846H350M350 114.846V122.105M234.774 122.105H292.387M234.774 122.105H177.16M290.704 129.788L292.387 122.105M290.704 129.788L288.919 137.933M290.704 129.788H350M292.387 122.105H350M177.16 122.105H119.547M177.16 122.105L181.931 114.846M350 122.105V129.788M181.931 114.846H125.907M288.919 137.933L287.024 146.584M288.919 137.933H350M350 129.788V137.933M350 137.933V146.584M224.048 146.584L220.016 155.789M224.048 146.584H287.024M224.048 146.584H161.073M287.024 146.584L285.008 155.789M287.024 146.584H350M350 146.584V155.789M220.016 155.789H285.008M220.016 155.789H155.023M282.858 165.602L285.008 155.789M282.858 165.602L280.561 176.088M282.858 165.602H350M285.008 155.789H350M155.023 155.789H90.031M155.023 155.789L161.073 146.584M350 155.789V165.602M161.073 146.584H98.0967M280.561 176.088L278.101 187.315M280.561 176.088H350M350 165.602V176.088M350 176.088V187.315M206.203 187.315L200.922 199.368M206.203 187.315H278.101M206.203 187.315H134.304M278.101 187.315L275.461 199.368M278.101 187.315H350M350 187.315V199.368M200.922 199.368H275.461M200.922 199.368H126.383M272.619 212.34L275.461 199.368M272.619 212.34L269.553 226.34M272.619 212.34H350M275.461 199.368H350M126.383 199.368H51.8436M126.383 199.368L134.304 187.315M350 199.368V212.34M134.304 187.315H62.4047M269.553 226.34L266.232 241.495M269.553 226.34H350M350 212.34V226.34M350 226.34V241.495M182.465 241.495L175.253 257.956M182.465 241.495H266.232M182.465 241.495H98.6964M266.232 241.495L262.626 257.956M266.232 241.495H350M350 241.495V257.956M175.253 257.956H262.626M175.253 257.956H87.879M258.696 275.897L262.626 257.956M258.696 275.897L254.396 295.528M258.696 275.897H350M262.626 257.956H350M87.879 257.956H0.505225M87.879 257.956L98.6964 241.495M350 257.956V275.897M98.6964 241.495H14.929M254.396 295.528L249.67 317.1M254.396 295.528H350M350 275.897V295.528M350 295.528V317.1M149.34 317.1L138.905 340.915M149.34 317.1H249.67M149.34 317.1H49.0094M249.67 317.1L244.452 340.915M249.67 317.1H350M350 317.1V340.915M244.452 340.915H138.905M244.452 340.915H350M138.905 340.915H33.3578M33.3578 340.915H-72.1899M33.3578 340.915L49.0094 317.1M49.0094 317.1H-51.3211M133.418 23.8871L131.475 25.3655L129.497 26.8706M133.418 23.8871H169.515M133.418 23.8871H97.3216M172.669 21.0079L175.714 18.2275M172.669 21.0079L169.515 23.8871M172.669 21.0079H208.135M175.714 18.2275H210.571M175.714 18.2275L177.93 16.2043L178.657 15.5414M144.388 15.5414H178.657M144.388 15.5414L145.682 14.5572L147.802 12.9441M144.388 15.5414H110.119M169.515 23.8871L166.248 26.8706M169.515 23.8871H205.612M208.135 21.0079L210.571 18.2275M208.135 21.0079L205.612 23.8871M210.571 18.2275L211.759 16.873L212.636 15.8721L212.925 15.5414M178.657 15.5414H212.925M178.657 15.5414L180.799 13.585L181.501 12.9441M205.612 23.8871L203.66 26.1145L202.998 26.8706M247.194 15.5414L247.41 15.2116L247.841 14.5572L248.479 13.585L248.901 12.9441M247.194 15.5414H212.925M212.925 15.5414L213.214 15.2116L213.788 14.5572L215.201 12.9441M129.497 26.8706H166.248M129.497 26.8706H92.7461M162.859 29.964L163.29 29.5711L163.718 29.1797L165.412 27.633L166.248 26.8706M162.859 29.964L160.235 32.3596L159.343 33.1736M162.859 29.964H200.288M166.248 26.8706H202.998M92.7461 26.8706H55.9956M92.7461 26.8706L96.1928 24.6227L97.3216 23.8871M202.998 26.8706L200.288 29.964M97.3216 23.8871H61.2241M159.343 33.1736L158.895 33.5832L158.444 33.9947L157.079 35.2417L156.618 35.6609L155.693 36.5059M159.343 33.1736H197.474M200.288 29.964L199.941 30.3583L197.474 33.1736M197.474 33.1736L197.116 33.5832L196.755 33.9947L196.393 34.4086L194.555 36.5059M116.832 36.5059L112.281 39.9688M116.832 36.5059H155.693M116.832 36.5059H77.9708M155.693 36.5059L151.9 39.9688M155.693 36.5059H194.555M194.555 36.5059L191.52 39.9688M112.281 39.9688H151.9M112.281 39.9688H72.6607M147.957 43.5693L151.9 39.9688M147.957 43.5693L143.853 47.3161M147.957 43.5693H188.365M151.9 39.9688H191.52M72.6607 39.9688H33.0407M72.6607 39.9688L77.9708 36.5059M191.52 39.9688L188.365 43.5693M77.9708 36.5059H39.1087M143.853 47.3161L139.579 51.2182M143.853 47.3161H185.082M188.365 43.5693L187.557 44.4918L185.082 47.3161M185.082 47.3161L183.816 48.7605L182.53 50.2274L181.662 51.2182M97.494 51.2182L94.8487 53.2305L92.1479 55.2857M97.494 51.2182H139.579M97.494 51.2182H55.4094M139.579 51.2182L135.123 55.2857M139.579 51.2182H181.662M181.662 51.2182L178.099 55.2857M92.1479 55.2857H135.123M92.1479 55.2857H49.1728M130.476 59.5291L135.123 55.2857M130.476 59.5291L125.622 63.9599M130.476 59.5291H174.38M135.123 55.2857H178.099M49.1728 55.2857H6.19688M49.1728 55.2857L55.4094 51.2182M178.099 55.2857L174.38 59.5291M55.4094 51.2182H13.3256M125.622 63.9599L124.375 65.0984L120.549 68.5914M125.622 63.9599H170.497M174.38 59.5291L170.497 63.9599M170.497 63.9599L170 64.5277L168.491 66.2498L166.439 68.5914M74.6591 68.5914L68.2898 73.437M74.6591 68.5914H120.549M74.6591 68.5914H28.7688M120.549 68.5914L115.241 73.437M120.549 68.5914H166.439M166.439 68.5914L162.193 73.437M68.2898 73.437H115.241M68.2898 73.437H21.338M109.682 78.512L113.188 75.3125L115.241 73.437M109.682 78.512L103.854 83.8332M109.682 78.512H157.746M115.241 73.437H162.193M21.338 73.437H-25.6137M21.338 73.437L28.7688 68.5914M162.193 73.437L157.746 78.512M28.7688 68.5914H-17.1215M103.854 83.8332L97.7354 89.4193M103.854 83.8332H153.083M157.746 78.512L153.083 83.8332M153.083 83.8332L148.188 89.4193M47.2823 89.4193L39.566 95.2897M47.2823 89.4193H97.7354M47.2823 89.4193H-3.17006M97.7354 89.4193L91.3054 95.2897M97.7354 89.4193H148.188M148.188 89.4193L143.044 95.2897M39.566 95.2897H91.3054M39.566 95.2897H-12.1727M84.5388 101.467L91.3054 95.2897M84.5388 101.467L77.4086 107.977M84.5388 101.467H137.631M91.3054 95.2897H143.044M-12.1727 95.2897H-63.9113M-12.1727 95.2897L-3.17006 89.4193M143.044 95.2897L137.631 101.467M-3.17006 89.4193H-53.6231M77.4086 107.977L69.8849 114.846M77.4086 107.977H131.927M137.631 101.467L131.927 107.977M131.927 107.977L125.907 114.846M13.8616 114.846L4.32069 122.105M13.8616 114.846H69.8849M13.8616 114.846H-42.1618M69.8849 114.846L61.9339 122.105M69.8849 114.846H125.907M125.907 114.846L119.547 122.105M4.32069 122.105H61.9339M4.32069 122.105H-53.2925M53.5182 129.788L61.9339 122.105M53.5182 129.788L44.5965 137.933M53.5182 129.788H112.815M61.9339 122.105H119.547M-53.2925 122.105H-110.906M-53.2925 122.105L-42.1618 114.846M119.547 122.105L112.815 129.788M-42.1618 114.846H-98.1844M44.5965 137.933L35.1209 146.584M44.5965 137.933H105.677M112.815 129.788L105.677 137.933M105.677 137.933L98.0967 146.584M-27.855 146.584L-39.9535 155.789M-27.855 146.584H35.1209M-27.855 146.584H-90.8308M35.1209 146.584L25.0388 155.789M35.1209 146.584H98.0967M98.0967 146.584L90.031 155.789M-39.9535 155.789H25.0388M-39.9535 155.789H-104.946M14.2896 165.602L25.0388 155.789M14.2896 165.602L2.80425 176.088M14.2896 165.602H81.4317M25.0388 155.789H90.031M-104.946 155.789H-169.938M-104.946 155.789L-90.8308 146.584M90.031 155.789L81.4317 165.602M-90.8308 146.584H-153.807M2.80425 176.088L-9.49363 187.315M2.80425 176.088H72.2439M81.4317 165.602L72.2439 176.088M72.2439 176.088L62.4047 187.315M-81.3927 187.315L-97.2346 199.368M-81.3927 187.315H-9.49363M-81.3927 187.315H-153.292M-9.49363 187.315L-22.6955 199.368M-9.49363 187.315H62.4047M62.4047 187.315L51.8436 199.368M-97.2346 199.368H-22.6955M-97.2346 199.368H-171.774M-36.9041 212.34L-22.6955 199.368M-36.9041 212.34L-52.2386 226.34M-36.9041 212.34H40.4768M-22.6955 199.368H51.8436M-171.774 199.368H-246.313M-171.774 199.368L-153.292 187.315M51.8436 199.368L40.4768 212.34M-153.292 187.315H-225.191M-52.2386 226.34L-68.8392 241.495M-52.2386 226.34H28.2088M40.4768 212.34L28.2088 226.34M28.2088 226.34L14.929 241.495M-152.607 241.495L-174.242 257.956M-152.607 241.495H-68.8392M-152.607 241.495H-236.375M-68.8392 241.495L-86.8685 257.956M-68.8392 241.495H14.929M14.929 241.495L0.505225 257.956M-174.242 257.956H-86.8685M-174.242 257.956H-261.616M-106.52 275.897L-86.8685 257.956M-106.52 275.897L-128.023 295.528M-106.52 275.897H-15.2161M-86.8685 257.956H0.505225M-261.616 257.956H-348.99M-261.616 257.956L-236.375 241.495M0.505225 257.956L-15.2161 275.897M-236.375 241.495H-320.142M-128.023 295.528L-151.651 317.1M-128.023 295.528H-32.4178M-15.2161 275.897L-32.4178 295.528M-32.4178 295.528L-51.3211 317.1M-251.981 317.1L-283.284 340.915M-251.981 317.1H-151.651M-251.981 317.1H-352.312M-151.651 317.1L-177.737 340.915M-151.651 317.1H-51.3211M-51.3211 317.1L-72.1899 340.915M-177.737 340.915H-283.284M-177.737 340.915H-72.1899M-283.284 340.915L-369.612 340.915M-352.312 317.1L-369.612 328.382M-352.312 317.1H-369.612M-10.9696 23.8871L-17.5053 26.8706M-10.9696 23.8871H25.1273M-10.9696 23.8871H-47.0664M30.8039 21.0079L36.2858 18.2275M30.8039 21.0079L25.1273 23.8871M30.8039 21.0079H66.2703M36.2858 18.2275H71.1427M36.2858 18.2275L41.5824 15.5414M7.31304 15.5414H41.5824M7.31304 15.5414L9.46964 14.5572L13.0032 12.9441M7.31304 15.5414H-26.9555M25.1273 23.8871L19.2452 26.8706M25.1273 23.8871H61.2241M66.2703 21.0079L71.1427 18.2275M66.2703 21.0079L61.2241 23.8871M71.1427 18.2275L74.6891 16.2043L75.8509 15.5414M41.5824 15.5414L42.2316 15.2116L46.7029 12.9441M41.5824 15.5414H75.8509M61.2241 23.8871L55.9956 26.8706M110.119 15.5414L114.102 12.9441M110.119 15.5414H75.8509M75.8509 15.5414L77.5758 14.5572L80.4025 12.9441M-17.5053 26.8706H19.2452M-17.5053 26.8706H-54.2558M13.1464 29.964L19.2452 26.8706M13.1464 29.964L6.81832 33.1736M13.1464 29.964H50.5745M19.2452 26.8706H55.9956M-54.2558 26.8706H-91.0062M-54.2558 26.8706L-47.0664 23.8871M55.9956 26.8706L50.5745 29.964M-47.0664 23.8871H-83.1632M6.81832 33.1736L5.19844 33.9947L0.247368 36.5059M6.81832 33.1736H44.9496M50.5745 29.964L44.9496 33.1736M44.9496 33.1736L39.1087 36.5059M-38.614 36.5059L-39.5457 36.9318L-46.1991 39.9688M-38.614 36.5059H0.247368M-38.614 36.5059H-77.4753M0.247368 36.5059L-6.5792 39.9688M0.247368 36.5059H39.1087M39.1087 36.5059L38.3636 36.9318L33.0407 39.9688M-46.1991 39.9688H-6.5792M-46.1991 39.9688H-85.819M-13.6779 43.5693L-6.5792 39.9688M-13.6779 43.5693L-21.0652 47.3161M-13.6779 43.5693H26.7306M-6.5792 39.9688H33.0407M-85.819 39.9688H-125.439M-85.819 39.9688L-77.4753 36.5059M33.0407 39.9688L26.7306 43.5693M-77.4753 36.5059H-116.337M-21.0652 47.3161L-28.759 51.2182M-21.0652 47.3161H20.1642M26.7306 43.5693L20.1642 47.3161M20.1642 47.3161L13.3256 51.2182M-70.8428 51.2182L-79.7533 55.2857M-70.8428 51.2182H-28.759M-70.8428 51.2182H-112.927M-28.759 51.2182L-36.7782 55.2857M-28.759 51.2182H13.3256M13.3256 51.2182L6.19688 55.2857M-79.7533 55.2857H-36.7782M-79.7533 55.2857H-122.729M-45.1444 59.5291L-36.7782 55.2857M-45.1444 59.5291L-53.881 63.9599M-45.1444 59.5291H-1.23984M-36.7782 55.2857H6.19688M-122.729 55.2857H-165.704M-122.729 55.2857L-112.927 51.2182M6.19688 55.2857L-1.23984 59.5291M-112.927 51.2182H-155.012M-53.881 63.9599L-63.0118 68.5914M-53.881 63.9599H-9.00491M-1.23984 59.5291L-9.00491 63.9599M-9.00491 63.9599L-17.1215 68.5914M-108.902 68.5914L-119.517 73.437M-108.902 68.5914H-63.0118M-108.902 68.5914H-154.792M-63.0118 68.5914L-72.5654 73.437M-63.0118 68.5914H-17.1215M-17.1215 68.5914L-25.6137 73.437M-119.517 73.437H-72.5654M-119.517 73.437H-166.469M-82.5718 78.512L-72.5654 73.437M-82.5718 78.512L-93.0631 83.8332M-82.5718 78.512H-34.5084M-72.5654 73.437H-25.6137M-166.469 73.437H-213.421M-166.469 73.437L-154.792 68.5914M-25.6137 73.437L-34.5084 78.512M-154.792 68.5914H-200.683M-93.0631 83.8332L-104.076 89.4193M-93.0631 83.8332H-43.8341M-34.5084 78.512L-43.8341 83.8332M-43.8341 83.8332L-53.6231 89.4193M-154.529 89.4193L-167.389 95.2897M-154.529 89.4193H-104.076M-154.529 89.4193H-204.982M-104.076 89.4193L-115.651 95.2897M-104.076 89.4193H-53.6231M-53.6231 89.4193L-63.9113 95.2897M-167.389 95.2897H-115.651M-167.389 95.2897H-219.129M-127.831 101.467L-115.651 95.2897M-127.831 101.467L-140.665 107.977M-127.831 101.467H-74.7385M-115.651 95.2897H-63.9113M-219.129 95.2897H-270.867M-219.129 95.2897L-204.982 89.4193M-63.9113 95.2897L-74.7385 101.467M-204.982 89.4193H-255.435M-140.665 107.977L-154.208 114.846M-140.665 107.977H-86.1466M-74.7385 101.467L-86.1466 107.977M-86.1466 107.977L-98.1844 114.846M-210.231 114.846L-226.132 122.105M-210.231 114.846H-154.208M-210.231 114.846H-266.254M-154.208 114.846L-168.519 122.105M-154.208 114.846H-98.1844M-98.1844 114.846L-110.906 122.105M-226.132 122.105H-168.519M-226.132 122.105H-283.745M-183.667 129.788L-168.519 122.105M-183.667 129.788L-199.726 137.933M-183.667 129.788H-124.371M-168.519 122.105H-110.906M-283.745 122.105H-341.359M-283.745 122.105L-266.254 114.846M-110.906 122.105L-124.371 129.788M-266.254 114.846H-322.277M-199.726 137.933L-216.783 146.584M-199.726 137.933H-138.645M-124.371 129.788L-138.645 137.933M-138.645 137.933L-153.807 146.584M-279.758 146.584L-299.922 155.789M-279.758 146.584H-216.783M-279.758 146.584H-342.734M-216.783 146.584L-234.93 155.789M-216.783 146.584H-153.807M-153.807 146.584L-169.938 155.789M-299.922 155.789H-234.93M-299.922 155.789H-364.915M-254.28 165.602L-234.93 155.789M-254.28 165.602L-274.952 176.088M-254.28 165.602H-187.137M-234.93 155.789H-169.938M-364.915 155.789L-342.734 146.584M-364.915 155.789H-369.612M-364.915 155.789L-369.612 157.738M-169.938 155.789L-187.137 165.602M-342.734 146.584H-369.612M-274.952 176.088L-297.089 187.315M-274.952 176.088H-205.513M-187.137 165.602L-205.513 176.088M-205.513 176.088L-225.191 187.315M-368.988 187.315H-297.089M-368.988 187.315H-369.612M-368.988 187.315L-369.612 187.601M-297.089 187.315L-320.853 199.368M-297.089 187.315H-225.191M-225.191 187.315L-246.313 199.368M-346.427 212.34L-320.853 199.368M-346.427 212.34H-269.047M-346.427 212.34H-369.612M-346.427 212.34L-369.612 224.099M-320.853 199.368H-246.313M-320.853 199.368H-369.612M-246.313 199.368L-269.047 212.34M-269.047 212.34L-293.582 226.34M-293.582 226.34L-320.142 241.495M-293.582 226.34H-369.612M-320.142 241.495L-348.99 257.956M-320.142 241.495H-369.612M-348.99 257.956H-369.612M-348.99 257.956L-369.612 269.723M-155.358 23.8871L-164.507 26.8706M-155.358 23.8871H-119.26M-155.358 23.8871H-191.454M-111.061 21.0079L-103.143 18.2275M-111.061 21.0079L-119.26 23.8871M-111.061 21.0079H-75.5945M-103.143 18.2275H-68.286M-103.143 18.2275L-95.4926 15.5414M-129.761 15.5414H-95.4926M-129.761 15.5414L-121.796 12.9441M-129.761 15.5414H-164.03M-119.26 23.8871L-127.757 26.8706M-119.26 23.8871H-83.1632M-75.5945 21.0079L-68.286 18.2275M-75.5945 21.0079L-83.1632 23.8871M-68.286 18.2275L-61.224 15.5414M-95.4926 15.5414L-94.5548 15.2116L-88.0963 12.9441M-95.4926 15.5414H-61.224M-83.1632 23.8871L-91.0062 26.8706M-26.9555 15.5414L-20.6971 12.9441M-26.9555 15.5414H-61.224M-61.224 15.5414L-60.3582 15.2116L-54.3967 12.9441M-164.507 26.8706H-127.757M-164.507 26.8706H-201.258M-136.567 29.964L-127.757 26.8706M-136.567 29.964L-145.707 33.1736M-136.567 29.964H-99.1379M-127.757 26.8706H-91.0062M-201.258 26.8706H-238.008M-201.258 26.8706L-191.454 23.8871M-91.0062 26.8706L-99.1379 29.964M-191.454 23.8871H-227.551M-145.707 33.1736L-155.198 36.5059M-145.707 33.1736H-107.576M-99.1379 29.964L-100.176 30.3583L-107.576 33.1736M-107.576 33.1736L-116.337 36.5059M-194.059 36.5059L-204.679 39.9688M-194.059 36.5059H-155.198M-194.059 36.5059H-232.921M-155.198 36.5059L-165.059 39.9688M-155.198 36.5059H-116.337M-116.337 36.5059L-125.439 39.9688M-204.679 39.9688H-165.059M-204.679 39.9688H-244.299M-175.313 43.5693L-165.059 39.9688M-175.313 43.5693L-185.983 47.3161M-175.313 43.5693H-134.904M-165.059 39.9688H-125.439M-244.299 39.9688H-283.919M-244.299 39.9688L-232.921 36.5059M-125.439 39.9688L-134.904 43.5693M-232.921 36.5059H-271.782M-185.983 47.3161L-197.096 51.2182M-185.983 47.3161H-144.754M-134.904 43.5693L-144.754 47.3161M-144.754 47.3161L-155.012 51.2182M-239.18 51.2182L-251.655 55.2857M-239.18 51.2182H-197.096M-239.18 51.2182H-281.265M-197.096 51.2182L-208.679 55.2857M-197.096 51.2182H-155.012M-155.012 51.2182L-165.704 55.2857M-251.655 55.2857H-208.679M-251.655 55.2857H-294.63M-220.764 59.5291L-208.679 55.2857M-220.764 59.5291L-233.383 63.9599M-220.764 59.5291H-176.859M-208.679 55.2857H-165.704M-294.63 55.2857H-337.605M-294.63 55.2857L-281.265 51.2182M-165.704 55.2857L-176.859 59.5291M-281.265 51.2182H-323.349M-233.383 63.9599L-246.573 68.5914M-233.383 63.9599H-188.508M-176.859 59.5291L-188.508 63.9599M-188.508 63.9599L-200.683 68.5914M-292.463 68.5914L-307.324 73.437M-292.463 68.5914H-246.573M-292.463 68.5914H-338.353M-246.573 68.5914L-260.372 73.437M-246.573 68.5914H-200.683M-200.683 68.5914L-213.421 73.437M-307.324 73.437H-260.372M-274.826 78.512L-260.372 73.437M-274.826 78.512L-289.98 83.8332M-274.826 78.512H-226.762M-260.372 73.437H-213.421M-213.421 73.437L-226.762 78.512M-338.353 68.5914H-369.612M-289.98 83.8332L-305.888 89.4193M-289.98 83.8332H-240.751M-226.762 78.512L-240.751 83.8332M-240.751 83.8332L-255.435 89.4193M-356.341 89.4193H-305.888M-356.341 89.4193H-369.612M-356.341 89.4193L-369.612 93.7464M-305.888 89.4193L-322.607 95.2897M-305.888 89.4193H-255.435M-255.435 89.4193L-270.867 95.2897M-340.2 101.467L-322.607 95.2897M-340.2 101.467L-358.738 107.977M-340.2 101.467H-287.107M-340.2 101.467H-369.612M-322.607 95.2897H-270.867M-322.607 95.2897H-369.612M-270.867 95.2897L-287.107 101.467M-369.759 93.7941L-369.612 93.7464M-358.738 107.977H-304.22M-358.738 107.977H-369.612M-358.738 107.977L-369.612 111.795M-287.107 101.467L-304.22 107.977M-304.22 107.977L-322.277 114.846M-322.277 114.846L-341.359 122.105M-322.277 114.846H-369.612M-361.556 129.788L-341.359 122.105M-361.556 129.788H-369.612M-361.556 129.788L-369.612 132.852M-341.359 122.105H-369.612M-299.745 23.8871L-311.509 26.8706M-299.745 23.8871H-263.648M-299.745 23.8871H-335.842M-252.926 21.0079L-242.572 18.2275M-252.926 21.0079L-263.648 23.8871M-252.926 21.0079H-217.459M-242.572 18.2275H-207.715M-242.572 18.2275L-232.567 15.5414M-266.836 15.5414H-232.567M-266.836 15.5414L-256.595 12.9441M-266.836 15.5414H-301.105M-263.648 23.8871L-274.759 26.8706M-263.648 23.8871H-227.551M-217.459 21.0079L-207.715 18.2275M-217.459 21.0079L-227.551 23.8871M-207.715 18.2275L-198.299 15.5414M-232.567 15.5414H-198.299M-232.567 15.5414L-222.895 12.9441M-227.551 23.8871L-238.008 26.8706M-164.03 15.5414L-155.496 12.9441M-164.03 15.5414H-198.299M-198.299 15.5414L-189.195 12.9441M-311.509 26.8706H-274.759M-311.509 26.8706H-348.259M-286.279 29.964L-274.759 26.8706M-286.279 29.964L-298.232 33.1736M-286.279 29.964H-248.851M-274.759 26.8706H-238.008M-348.259 26.8706L-335.842 23.8871M-348.259 26.8706H-369.612M-238.008 26.8706L-248.851 29.964M-335.842 23.8871H-369.612M-298.232 33.1736L-310.643 36.5059M-298.232 33.1736H-260.101M-248.851 29.964L-260.101 33.1736M-260.101 33.1736L-271.782 36.5059M-349.505 36.5059L-363.158 39.9688M-349.505 36.5059H-310.643M-349.505 36.5059H-369.612M-310.643 36.5059L-323.539 39.9688M-310.643 36.5059H-271.782M-271.782 36.5059L-283.919 39.9688M-336.947 43.5693L-323.539 39.9688M-336.947 43.5693L-350.901 47.3161M-336.947 43.5693H-296.539M-336.947 43.5693H-369.612M-323.539 39.9688H-363.158M-323.539 39.9688H-283.919M-363.158 39.9688L-369.612 41.6054M-363.158 39.9688H-369.612M-283.919 39.9688L-296.539 43.5693M-350.901 47.3161L-365.433 51.2182M-350.901 47.3161H-309.672M-350.901 47.3161H-369.612M-296.539 43.5693L-309.672 47.3161M-309.672 47.3161L-323.349 51.2182M-365.433 51.2182H-323.349M-365.433 51.2182L-369.612 52.3402M-365.433 51.2182H-369.612M-323.349 51.2182L-337.605 55.2857M-352.479 59.5291L-337.605 55.2857M-352.479 59.5291L-368.01 63.9599M-352.479 59.5291H-369.612M-337.605 55.2857H-369.612M-369.837 55.2857H-369.612M-368.01 63.9599H-369.612M-368.01 63.9599L-369.612 64.4171M-370 64.5277L-369.612 64.4171M-359.324 21.0079L-347.143 18.2275M-359.324 21.0079H-369.612M-359.324 21.0079L-369.612 23.3559M-347.143 18.2275L-335.373 15.5414M-347.143 18.2275H-369.612M-301.105 15.5414L-290.295 12.9441M-301.105 15.5414H-335.373M-335.373 15.5414L-323.994 12.9441M-335.373 15.5414H-369.612M821.796 12.9441H855.496M821.796 12.9441H788.096M847.24 10.4319L849.278 11.0523L855.496 12.9441M847.24 10.4319H880.39M855.496 12.9441H889.195M880.39 10.4319L882.564 11.0523L883.658 11.3639L889.195 12.9441M889.195 12.9441H922.895M922.895 12.9441H956.595M788.096 12.9441H754.397M956.595 12.9441H990.295M990.295 12.9441L979.837 10.4319M990.295 12.9441H1023.99M979.837 10.4319H1012.99M686.997 12.9441H720.697M686.997 12.9441H653.297M714.643 10.4319L716.137 11.0523L716.89 11.3639L720.697 12.9441M714.643 10.4319H747.792M720.697 12.9441H754.397M747.792 10.4319L754.397 12.9441M653.297 12.9441H619.598M552.198 12.9441H585.898M552.198 12.9441H518.499M582.045 10.4319L582.52 10.7411L582.996 11.0523L583.475 11.3639L585.898 12.9441M582.045 10.4319H615.194M585.898 12.9441H619.598M615.194 10.4319L619.598 12.9441M518.499 12.9441H484.798M417.399 12.9441H451.099M417.399 12.9441H383.7M449.448 10.4319L451.099 12.9441M449.448 10.4319H482.598M451.099 12.9441H484.798M482.598 10.4319L482.869 10.7411L483.141 11.0523L483.415 11.3639L484.798 12.9441M383.7 12.9441H350M282.601 12.9441H316.3M282.601 12.9441H248.901M316.851 10.4319L316.3 12.9441M316.851 10.4319H350M316.3 12.9441H350M350 10.4319V12.9441M248.901 12.9441H215.201M147.802 12.9441H181.501M147.802 12.9441H114.102M184.253 10.4319L183.574 11.0523L182.198 12.3079L181.501 12.9441M184.253 10.4319H217.402M181.501 12.9441H215.201M217.402 10.4319L217.131 10.7411L216.859 11.0523L216.585 11.3639L215.201 12.9441M114.102 12.9441H80.4025M13.0032 12.9441H46.7029M13.0032 12.9441H-20.6971M51.6562 10.4319L50.4329 11.0523L49.8175 11.3639L46.7029 12.9441M51.6562 10.4319H84.8056M46.7029 12.9441H80.4025M84.8056 10.4319L84.2629 10.7411L80.4025 12.9441M-20.6971 12.9441H-54.3967M-121.796 12.9441H-88.0963M-121.796 12.9441H-155.496M-80.9414 10.4319L-82.7082 11.0523L-83.5972 11.3639L-88.0963 12.9441M-80.9414 10.4319H-47.792M-88.0963 12.9441H-54.3967M-47.792 10.4319L-48.6061 10.7411L-54.3967 12.9441M-155.496 12.9441H-189.195M-256.595 12.9441H-222.895M-256.595 12.9441H-290.295M-213.539 10.4319L-222.895 12.9441M-213.539 10.4319H-180.39M-222.895 12.9441H-189.195M-180.39 10.4319L-182.563 11.0523L-183.658 11.3639L-189.195 12.9441M-290.295 12.9441H-323.994M-346.136 10.4319L-357.694 12.9441M-346.136 10.4319H-312.986M-346.136 10.4319H-369.612M-357.694 12.9441H-323.994M-357.694 12.9441L-369.612 15.535M-357.694 12.9441H-369.612M-312.986 10.4319L-315.704 11.0523L-323.994 12.9441M1012.99 10.4319L1015.7 11.0523L1023.99 12.9441M1023.99 12.9441H1057.69M1057.69 12.9441L1069.61 15.535M1057.69 12.9441H1069.61M1069.61 132.852V129.788M1069.61 132.852V137.933M1069.61 129.788V122.105M1069.61 137.933V139.451V146.584M1069.61 146.584V155.789M1069.61 73.437V68.5914M1069.61 73.437V78.1042M1069.61 10.4319V12.9441M1069.61 12.9441V15.535M1069.61 15.535L1069.64 15.5414H1069.61M1069.61 15.535V15.5414M1069.61 15.5414V18.2275M1069.61 18.2275V21.0079M1069.61 21.0079V23.3559M1069.61 23.3559V23.8871M1069.61 23.8871V26.8706M1069.61 26.8706V29.964M1069.61 29.964V32.0002M1069.61 32.0002V33.1736M1069.61 33.1736V36.5059M1069.61 36.5059V39.9688M1069.61 39.9688V41.6054M1069.61 41.6054V43.5693M1069.61 43.5693V47.3161M1069.61 47.3161V51.2182M1069.61 51.2182V52.3402M1069.61 52.3402V55.2857M1069.61 55.2857V59.5291M1069.61 59.5291V63.9599M1069.61 63.9599V64.4171M1069.61 64.4171V68.5914M1069.61 78.512V83.8332M1069.61 78.512V78.1042M1069.61 83.8332V89.4193M1069.61 89.4193V93.7464M1069.61 93.7464V95.2897M1069.61 95.2897V101.467M1069.61 101.467V107.977M1069.61 107.977V111.795M1069.61 111.795V114.846M1069.61 114.846V122.105M1069.61 155.789V157.738M1069.61 157.738V165.602M1069.61 165.602V176.088M1069.61 176.088V187.315M1069.61 187.315V187.601M1069.61 187.601V199.368M1069.61 199.368V212.34M1069.61 212.34V224.1M1069.61 224.1V226.34M1069.61 226.34V241.495M1069.61 241.495V257.956M1069.61 257.956V269.723M1069.61 269.723V275.897M1069.61 275.897V295.528M1069.61 295.528V317.1M1069.61 317.1V328.382M1069.61 328.382V340.915M1069.61 340.915V341H-369.612V340.915M-369.612 78.512V83.8332M-369.612 78.512V78.1042M-369.612 78.1042V73.437M-369.612 73.437V68.5914M-369.612 68.5914V64.4171M-369.612 64.4171V63.9599M-369.612 63.9599V59.5291M-369.612 59.5291V55.2857M-369.612 55.2857V52.3402M-369.612 52.3402V51.2182M-369.612 51.2182V47.3161M-369.612 47.3161V43.5693M-369.612 43.5693V41.6054M-369.612 41.6054V39.9688M-369.612 39.9688V36.5059M-369.612 36.5059V33.1736M-369.612 33.1736V32.0002M-369.612 32.0002V29.964M-369.612 29.964V26.8706M-369.612 26.8706V23.8871M-369.612 23.8871V23.3559M-369.612 23.3559V21.0079M-369.612 21.0079V18.2275M-369.612 18.2275V15.5414M-369.612 15.5414H-369.642L-369.612 15.535M-369.612 15.5414V15.535M-369.612 15.535V12.9441M-369.612 12.9441V10.4319M-369.612 340.915V328.382M-369.612 328.382V317.1M-369.612 317.1V295.528M-369.612 295.528V275.897M-369.612 275.897V269.723M-369.612 269.723V257.956M-369.612 257.956V241.495M-369.612 241.495V226.34M-369.612 226.34V224.099M-369.612 224.099V212.34M-369.612 212.34V199.368M-369.612 199.368V187.601M-369.612 187.601V187.315M-369.612 187.315V176.088M-369.612 176.088V165.602M-369.612 165.602V157.738M-369.612 157.738V155.789M-369.612 155.789V146.584M-369.612 146.584V137.933M-369.612 137.933V132.852M-369.612 132.852V129.788M-369.612 129.788V122.105M-369.612 122.105V114.846M-369.612 114.846V111.795M-369.612 111.795V107.977M-369.612 107.977V101.467M-369.612 101.467V95.2897M-369.612 95.2897V93.7464M-369.612 93.7464V89.4193M-369.612 89.4193V83.8332" stroke="url(#paint0_radial_2618_5784)" stroke-opacity="0.6" stroke-width="0.870405" stroke-miterlimit="10" stroke-linecap="round" stroke-linejoin="round"/>
<path d="M307.077 212V190.052H315.664C317.979 190.052 319.973 190.465 321.647 191.292C323.342 192.119 324.644 193.348 325.553 194.981C326.483 196.614 326.948 198.66 326.948 201.119C326.948 203.516 326.504 205.521 325.615 207.133C324.726 208.745 323.445 209.964 321.771 210.791C320.097 211.597 318.082 212 315.726 212H307.077ZM312.688 206.823H315.788C317.173 206.823 318.258 206.585 319.043 206.11C319.849 205.614 320.417 204.932 320.748 204.064C321.099 203.196 321.275 202.194 321.275 201.057C321.275 199.962 321.11 198.98 320.779 198.112C320.448 197.223 319.87 196.531 319.043 196.035C318.216 195.518 317.059 195.26 315.571 195.26H312.688V206.823ZM338.448 212.248C336.216 212.248 334.263 211.783 332.589 210.853C330.915 209.923 329.613 208.621 328.683 206.947C327.773 205.252 327.319 203.289 327.319 201.057C327.319 198.763 327.794 196.779 328.745 195.105C329.695 193.41 331.018 192.098 332.713 191.168C334.407 190.238 336.371 189.773 338.603 189.773C340.814 189.773 342.757 190.228 344.431 191.137C346.105 192.046 347.417 193.338 348.368 195.012C349.318 196.665 349.794 198.629 349.794 200.902C349.794 203.134 349.318 205.108 348.368 206.823C347.438 208.518 346.115 209.851 344.4 210.822C342.705 211.773 340.721 212.248 338.448 212.248ZM338.572 206.947C339.894 206.947 340.959 206.647 341.765 206.048C342.571 205.428 343.149 204.663 343.501 203.754C343.873 202.845 344.059 201.946 344.059 201.057C344.059 200.396 343.955 199.724 343.749 199.042C343.563 198.339 343.253 197.688 342.819 197.089C342.405 196.49 341.847 196.004 341.145 195.632C340.442 195.26 339.574 195.074 338.541 195.074C337.239 195.074 336.185 195.374 335.379 195.973C334.573 196.552 333.984 197.296 333.612 198.205C333.24 199.114 333.054 200.055 333.054 201.026C333.054 201.997 333.24 202.938 333.612 203.847C334.004 204.756 334.604 205.5 335.41 206.079C336.236 206.658 337.29 206.947 338.572 206.947ZM361.043 212.248C358.77 212.248 356.817 211.804 355.184 210.915C353.552 210.006 352.301 208.724 351.433 207.071C350.565 205.397 350.131 203.423 350.131 201.15C350.131 198.815 350.576 196.8 351.464 195.105C352.374 193.39 353.634 192.077 355.246 191.168C356.879 190.238 358.78 189.773 360.95 189.773C362.666 189.773 364.226 190.083 365.631 190.703C367.057 191.323 368.215 192.253 369.103 193.493C369.992 194.733 370.519 196.304 370.684 198.205H365.383C365.135 197.213 364.67 196.448 363.988 195.911C363.306 195.353 362.356 195.074 361.136 195.074C359.834 195.074 358.801 195.363 358.036 195.942C357.272 196.521 356.724 197.254 356.393 198.143C356.083 199.032 355.928 199.951 355.928 200.902C355.928 201.853 356.094 202.793 356.424 203.723C356.776 204.653 357.334 205.428 358.098 206.048C358.884 206.647 359.927 206.947 361.229 206.947C362.015 206.947 362.697 206.833 363.275 206.606C363.854 206.358 364.329 206.007 364.701 205.552C365.094 205.077 365.363 204.508 365.507 203.847H370.932C370.808 205.707 370.271 207.267 369.32 208.528C368.37 209.768 367.161 210.698 365.693 211.318C364.247 211.938 362.697 212.248 361.043 212.248ZM380.801 212.248C379.189 212.248 377.691 211.979 376.306 211.442C374.942 210.905 373.816 210.068 372.927 208.931C372.059 207.794 371.532 206.348 371.346 204.591H376.988C377.133 205.17 377.402 205.645 377.794 206.017C378.187 206.368 378.673 206.627 379.251 206.792C379.851 206.957 380.491 207.04 381.173 207.04C381.587 207.04 382.01 206.999 382.444 206.916C382.878 206.833 383.24 206.678 383.529 206.451C383.839 206.224 383.994 205.893 383.994 205.459C383.994 205.149 383.901 204.901 383.715 204.715C383.55 204.508 383.302 204.343 382.971 204.219C382.661 204.074 382.269 203.95 381.793 203.847C381.607 203.806 381.411 203.764 381.204 203.723C381.018 203.682 380.832 203.64 380.646 203.599C380.46 203.558 380.264 203.516 380.057 203.475C379.003 203.248 377.991 202.989 377.019 202.7C376.048 202.39 375.19 201.987 374.446 201.491C373.702 200.995 373.113 200.334 372.679 199.507C372.245 198.68 372.028 197.637 372.028 196.376C372.028 195.219 372.235 194.247 372.648 193.462C373.062 192.656 373.609 192.015 374.291 191.54C374.973 191.044 375.717 190.672 376.523 190.424C377.329 190.176 378.125 190.011 378.91 189.928C379.696 189.825 380.398 189.773 381.018 189.773C382.548 189.773 383.891 190.062 385.048 190.641C386.206 191.199 387.136 192.026 387.838 193.121C388.562 194.216 388.996 195.539 389.14 197.089H383.715C383.653 196.634 383.467 196.252 383.157 195.942C382.847 195.611 382.444 195.363 381.948 195.198C381.473 195.012 380.915 194.919 380.274 194.919C379.902 194.919 379.551 194.95 379.22 195.012C378.89 195.074 378.6 195.167 378.352 195.291C378.125 195.415 377.939 195.57 377.794 195.756C377.65 195.942 377.577 196.159 377.577 196.407C377.577 196.738 377.701 197.017 377.949 197.244C378.218 197.471 378.6 197.668 379.096 197.833C379.613 197.998 380.243 198.174 380.987 198.36C381.339 198.443 381.68 198.525 382.01 198.608C382.341 198.67 382.672 198.742 383.002 198.825C383.912 199.032 384.759 199.269 385.544 199.538C386.35 199.807 387.053 200.158 387.652 200.592C388.272 201.026 388.758 201.615 389.109 202.359C389.461 203.082 389.636 204.012 389.636 205.149C389.636 206.451 389.388 207.557 388.892 208.466C388.396 209.355 387.725 210.078 386.877 210.636C386.03 211.194 385.079 211.607 384.025 211.876C382.971 212.124 381.897 212.248 380.801 212.248Z" fill="#7A1DFF"/>
<path d="M202.017 165.8C199.627 165.8 197.367 165.476 195.236 164.827C193.105 164.178 191.2 163.237 189.521 162.004C187.842 160.707 186.486 159.117 185.453 157.235C184.484 155.289 184 153.018 184 150.422C184 147.113 184.646 144.421 185.937 142.344C187.229 140.203 188.972 138.581 191.168 137.478C193.428 136.375 195.979 135.629 198.82 135.24C201.662 134.785 204.632 134.558 207.732 134.558H217.709C217.709 132.287 217.353 130.341 216.643 128.719C215.933 127.032 214.803 125.702 213.253 124.728C211.768 123.755 209.83 123.268 207.441 123.268C205.891 123.268 204.438 123.463 203.082 123.852C201.791 124.177 200.661 124.728 199.692 125.507C198.788 126.221 198.142 127.161 197.755 128.329H185.647C186.099 125.669 187.003 123.398 188.359 121.517C189.78 119.57 191.491 117.98 193.493 116.748C195.559 115.515 197.819 114.606 200.273 114.022C202.727 113.374 205.213 113.049 207.732 113.049C215.158 113.049 220.55 115.19 223.908 119.473C227.33 123.755 229.042 129.757 229.042 137.478V165.119H218.58L218.29 158.501C216.805 160.707 215.029 162.329 212.962 163.367C210.896 164.405 208.894 165.054 206.957 165.313C205.019 165.638 203.373 165.8 202.017 165.8ZM204.341 156.165C206.924 156.165 209.217 155.678 211.219 154.705C213.221 153.732 214.803 152.369 215.965 150.617C217.192 148.865 217.806 146.854 217.806 144.583V142.928H208.507C206.957 142.928 205.407 142.993 203.857 143.123C202.372 143.188 201.016 143.447 199.789 143.902C198.562 144.291 197.561 144.907 196.786 145.751C196.076 146.594 195.721 147.795 195.721 149.352C195.721 150.909 196.108 152.174 196.883 153.148C197.722 154.121 198.788 154.867 200.079 155.386C201.436 155.905 202.856 156.165 204.341 156.165Z" fill="#18181B"/>
<path d="M232.575 165.119V96.3091H244.392V165.119H232.575Z" fill="#18181B"/>
<path d="M270.956 165.8C265.661 165.8 261.14 164.697 257.395 162.491C253.714 160.285 250.905 157.235 248.968 153.342C247.095 149.384 246.159 144.81 246.159 139.619C246.159 134.429 247.127 129.854 249.065 125.896C251.066 121.873 253.908 118.727 257.589 116.456C261.334 114.185 265.822 113.049 271.053 113.049C274.927 113.049 278.317 113.763 281.223 115.19C284.129 116.553 286.551 118.435 288.488 120.835C290.49 123.236 291.975 125.961 292.944 129.011C293.913 132.06 294.365 135.272 294.3 138.646C294.235 139.425 294.171 140.203 294.106 140.982C294.042 141.696 293.945 142.474 293.816 143.318H257.976C258.17 145.589 258.751 147.665 259.72 149.547C260.753 151.428 262.174 152.92 263.982 154.024C265.854 155.127 268.179 155.678 270.956 155.678C272.57 155.678 274.12 155.483 275.605 155.094C277.091 154.64 278.382 153.991 279.48 153.148C280.642 152.304 281.417 151.234 281.805 149.936H293.622C292.783 153.634 291.233 156.651 288.973 158.987C286.712 161.323 284 163.042 280.836 164.145C277.736 165.248 274.443 165.8 270.956 165.8ZM258.17 134.461H282.773C282.773 132.32 282.289 130.373 281.32 128.621C280.352 126.87 278.963 125.507 277.155 124.534C275.412 123.496 273.281 122.976 270.762 122.976C268.05 122.976 265.79 123.528 263.982 124.631C262.174 125.734 260.785 127.161 259.816 128.913C258.848 130.665 258.299 132.514 258.17 134.461Z" fill="#18181B"/>
<path d="M295.968 165.119V113.828H306.72L307.398 120.543C308.689 118.597 310.142 117.104 311.757 116.066C313.436 114.963 315.212 114.185 317.084 113.73C319.022 113.276 320.959 113.049 322.896 113.049C323.606 113.049 324.252 113.049 324.833 113.049C325.479 113.049 325.996 113.082 326.383 113.147C326.35 117.555 326.297 124.436 326.297 124.436L323.284 124.436C319.926 124.436 317.084 125.085 314.76 126.383C312.435 127.681 310.691 129.53 309.529 131.93C308.367 134.331 307.785 137.283 307.785 140.787V165.119H295.968Z" fill="#18181B"/>
<path d="M350.708 165.119C346.575 165.119 343.153 164.567 340.441 163.464C337.793 162.361 335.791 160.577 334.435 158.111C333.144 155.646 332.498 152.337 332.498 148.184V124.436L326.297 124.436C326.297 124.436 326.35 117.555 326.383 113.147C328.771 113.413 332.498 113.485 332.498 113.485V99.5208H344.315V113.828H356.229V124.339H344.315V146.627C344.315 149.222 344.767 151.201 345.671 152.564C346.575 153.926 348.609 154.607 351.774 154.607H355.842V165.119H350.708Z" fill="#18181B"/>
<path d="M427.759 164.924L445.776 138.743L428.728 113.633H442.482L453.525 130.86L464.277 113.633H477.741L460.693 139.035L479 164.924H465.148L453.04 147.211L440.932 164.924H427.759Z" fill="#18181B"/>
<path d="M360.872 184V148.771L361.26 113.828L372.501 113.828L373.082 120.738C375.084 118.078 377.473 116.131 380.25 114.898C383.027 113.666 386.094 113.049 389.452 113.049C394.489 113.049 398.654 114.217 401.948 116.553C405.241 118.889 407.695 122.036 409.309 125.994C410.924 129.952 411.731 134.429 411.731 139.425C411.731 144.421 410.891 148.93 409.212 152.953C407.534 156.911 404.983 160.058 401.56 162.394C398.202 164.665 393.973 165.8 388.871 165.8C386.482 165.8 384.286 165.54 382.284 165.021C380.347 164.502 378.603 163.756 377.054 162.783C375.568 161.81 374.309 160.707 373.276 159.474V184H360.872ZM387.031 155.094C390.324 155.094 392.907 154.38 394.78 152.953C396.652 151.461 398.009 149.547 398.848 147.211C399.688 144.81 400.107 142.279 400.107 139.619C400.107 136.829 399.655 134.234 398.751 131.833C397.912 129.432 396.523 127.486 394.586 125.994C392.649 124.501 390.066 123.755 386.837 123.755C383.866 123.755 381.348 124.501 379.281 125.994C377.28 127.421 375.762 129.335 374.729 131.736C373.696 134.137 373.179 136.732 373.179 139.522C373.179 142.377 373.663 145.005 374.632 147.405C375.601 149.741 377.118 151.623 379.185 153.05C381.251 154.413 383.866 155.094 387.031 155.094Z" fill="#18181B"/>
<path d="M414.152 165.021V113.73H425.97V165.021H414.152ZM420.061 107.794C417.801 107.794 415.993 107.112 414.637 105.75C413.281 104.387 412.603 102.603 412.603 100.397C412.603 98.2556 413.313 96.5037 414.734 95.1411C416.154 93.7137 417.93 92.9999 420.061 92.9999C422.128 92.9999 423.903 93.6812 425.389 95.0438C426.874 96.4064 427.617 98.1907 427.617 100.397C427.617 102.603 426.906 104.387 425.486 105.75C424.065 107.112 422.257 107.794 420.061 107.794Z" fill="#18181B"/>
<path d="M478 101H491V113H478V101Z" fill="#6200EE"/>
<path d="M491 114L503 114.028V126H491V114Z" fill="#6200EE"/>
<path d="M491 90H503V101H491V90Z" fill="#6200EE"/>
<path d="M503 101H515V113H503V101Z" fill="#6200EE"/>
<rect x="503" y="90" width="12" height="12" fill="#6200EE"/>
</g>
<defs>
<radialGradient id="paint0_radial_2618_5784" cx="0" cy="0" r="1" gradientUnits="userSpaceOnUse" gradientTransform="translate(350 328.727) rotate(-90) scale(521.268 2254.13)">
<stop stop-color="#525252"/>
<stop offset="0.489074" stop-color="#CED2DF" stop-opacity="0"/>
</radialGradient>
<clipPath id="clip0_2618_5784">
<rect width="700" height="320" fill="white"/>
</clipPath>
</defs>
</svg>
